<mxfile host="Electron" agent="Mozilla/5.0 (Windows NT 10.0; Win64; x64) AppleWebKit/537.36 (KHTML, like Gecko) draw.io/27.0.9 Chrome/134.0.6998.205 Electron/35.4.0 Safari/537.36" version="27.0.9">
  <diagram name="Page-1" id="rmS4MxZN0P-h6fTxGD-6">
    <mxGraphModel dx="1042" dy="722" grid="1" gridSize="10" guides="1" tooltips="1" connect="1" arrows="1" fold="1" page="1" pageScale="1" pageWidth="850" pageHeight="1100" math="0" shadow="0">
      <root>
        <mxCell id="0" />
        <mxCell id="1" parent="0" />
        <mxCell id="ra0EMfTkS3GhNaCGwNTb-1" value="" style="rounded=0;whiteSpace=wrap;html=1;fillColor=none;dashed=1;strokeColor=#F4F4F4;fontStyle=1;fontSize=20;" parent="1" vertex="1">
          <mxGeometry x="10" y="210" width="150" height="490" as="geometry" />
        </mxCell>
        <mxCell id="ra0EMfTkS3GhNaCGwNTb-2" value="Sources" style="rounded=1;whiteSpace=wrap;html=1;fontSize=24;strokeColor=none;" parent="1" vertex="1">
          <mxGeometry x="42.5" y="190" width="90" height="30" as="geometry" />
        </mxCell>
        <mxCell id="ra0EMfTkS3GhNaCGwNTb-4" value="" style="rounded=0;whiteSpace=wrap;html=1;fillColor=none;dashed=1;strokeColor=#F4F4F4;" parent="1" vertex="1">
          <mxGeometry x="180" y="210" width="490" height="490" as="geometry" />
        </mxCell>
        <mxCell id="ra0EMfTkS3GhNaCGwNTb-5" value="Data Warehouse" style="rounded=1;whiteSpace=wrap;html=1;fontSize=24;strokeColor=none;fillColor=default;dashed=1;" parent="1" vertex="1">
          <mxGeometry x="340" y="190" width="195" height="30" as="geometry" />
        </mxCell>
        <mxCell id="ra0EMfTkS3GhNaCGwNTb-6" value="" style="rounded=0;whiteSpace=wrap;html=1;fillColor=none;dashed=1;strokeColor=#F4F4F4;" parent="1" vertex="1">
          <mxGeometry x="680" y="210" width="150" height="490" as="geometry" />
        </mxCell>
        <mxCell id="ra0EMfTkS3GhNaCGwNTb-8" value="Consume" style="rounded=1;whiteSpace=wrap;html=1;fontSize=24;strokeColor=none;" parent="1" vertex="1">
          <mxGeometry x="710" y="190" width="90" height="30" as="geometry" />
        </mxCell>
        <mxCell id="ra0EMfTkS3GhNaCGwNTb-9" value="Bronze Layer" style="rounded=0;whiteSpace=wrap;html=1;strokeColor=none;fillColor=#F8973C;" parent="1" vertex="1">
          <mxGeometry x="210" y="230" width="120" height="30" as="geometry" />
        </mxCell>
        <mxCell id="ra0EMfTkS3GhNaCGwNTb-10" value="" style="rounded=0;whiteSpace=wrap;html=1;strokeColor=#CD7F32;fillColor=none;" parent="1" vertex="1">
          <mxGeometry x="200" y="270" width="140" height="410" as="geometry" />
        </mxCell>
        <mxCell id="ra0EMfTkS3GhNaCGwNTb-11" value="Silver Layer" style="rounded=0;whiteSpace=wrap;html=1;strokeColor=none;fillColor=#C0C0C0;fontColor=#000000;" parent="1" vertex="1">
          <mxGeometry x="365" y="230" width="120" height="30" as="geometry" />
        </mxCell>
        <mxCell id="ra0EMfTkS3GhNaCGwNTb-12" value="" style="rounded=0;whiteSpace=wrap;html=1;strokeColor=#C0C0C0;fillColor=none;" parent="1" vertex="1">
          <mxGeometry x="350" y="270" width="147.5" height="410" as="geometry" />
        </mxCell>
        <mxCell id="ra0EMfTkS3GhNaCGwNTb-13" value="Gold Layer" style="rounded=0;whiteSpace=wrap;html=1;strokeColor=none;fillColor=#AB9600;" parent="1" vertex="1">
          <mxGeometry x="522.5" y="230" width="120" height="30" as="geometry" />
        </mxCell>
        <mxCell id="ra0EMfTkS3GhNaCGwNTb-14" value="" style="rounded=0;whiteSpace=wrap;html=1;strokeColor=#DEBB00;fillColor=none;" parent="1" vertex="1">
          <mxGeometry x="510" y="270" width="145" height="410" as="geometry" />
        </mxCell>
        <mxCell id="ra0EMfTkS3GhNaCGwNTb-15" value="" style="image;aspect=fixed;html=1;points=[];align=center;fontSize=12;image=img/lib/azure2/general/Folder_Blank.svg;" parent="1" vertex="1">
          <mxGeometry x="62.86" y="320" width="49.28" height="40" as="geometry" />
        </mxCell>
        <mxCell id="ra0EMfTkS3GhNaCGwNTb-16" value="" style="image;aspect=fixed;html=1;points=[];align=center;fontSize=12;image=img/lib/azure2/general/Files.svg;" parent="1" vertex="1">
          <mxGeometry x="87.21" y="350" width="27.43" height="30" as="geometry" />
        </mxCell>
        <mxCell id="ra0EMfTkS3GhNaCGwNTb-17" value="" style="image;aspect=fixed;html=1;points=[];align=center;fontSize=12;image=img/lib/azure2/general/Folder_Blank.svg;" parent="1" vertex="1">
          <mxGeometry x="57.86" y="450" width="49.28" height="40" as="geometry" />
        </mxCell>
        <mxCell id="ra0EMfTkS3GhNaCGwNTb-18" value="" style="image;aspect=fixed;html=1;points=[];align=center;fontSize=12;image=img/lib/azure2/general/Files.svg;" parent="1" vertex="1">
          <mxGeometry x="87.21" y="480" width="27.43" height="30" as="geometry" />
        </mxCell>
        <mxCell id="ra0EMfTkS3GhNaCGwNTb-19" value="&lt;b&gt;&lt;font style=&quot;font-size: 20px;&quot;&gt;CRM&lt;/font&gt;&lt;/b&gt;" style="rounded=0;whiteSpace=wrap;html=1;fillColor=none;strokeColor=none;" parent="1" vertex="1">
          <mxGeometry x="27.5" y="370" width="120" height="60" as="geometry" />
        </mxCell>
        <mxCell id="ra0EMfTkS3GhNaCGwNTb-20" value="&lt;b&gt;&lt;font style=&quot;font-size: 20px;&quot;&gt;ERP&lt;/font&gt;&lt;/b&gt;" style="rounded=0;whiteSpace=wrap;html=1;fillColor=none;strokeColor=none;" parent="1" vertex="1">
          <mxGeometry x="27.5" y="500" width="120" height="60" as="geometry" />
        </mxCell>
        <mxCell id="ra0EMfTkS3GhNaCGwNTb-21" value="Object Type: CSV Files&lt;div&gt;&lt;br&gt;&lt;div&gt;Interface: Files in&amp;nbsp; Folder&lt;/div&gt;&lt;/div&gt;" style="text;html=1;align=center;verticalAlign=middle;whiteSpace=wrap;rounded=0;" parent="1" vertex="1">
          <mxGeometry x="10" y="620" width="145" height="60" as="geometry" />
        </mxCell>
        <mxCell id="ra0EMfTkS3GhNaCGwNTb-22" value="" style="shape=link;html=1;rounded=0;" parent="1" edge="1">
          <mxGeometry width="100" relative="1" as="geometry">
            <mxPoint x="35" y="570" as="sourcePoint" />
            <mxPoint x="135" y="570" as="targetPoint" />
          </mxGeometry>
        </mxCell>
        <mxCell id="ra0EMfTkS3GhNaCGwNTb-27" value="" style="html=1;verticalLabelPosition=bottom;align=center;labelBackgroundColor=#ffffff;verticalAlign=top;strokeWidth=2;strokeColor=#CD7F32;shadow=0;dashed=0;shape=mxgraph.ios7.icons.data;" parent="1" vertex="1">
          <mxGeometry x="255.5" y="342.71999999999997" width="30" height="44.55" as="geometry" />
        </mxCell>
        <mxCell id="ra0EMfTkS3GhNaCGwNTb-28" value="" style="html=1;verticalLabelPosition=bottom;align=center;labelBackgroundColor=#ffffff;verticalAlign=top;strokeWidth=2;strokeColor=#C0C0C0;shadow=0;dashed=0;shape=mxgraph.ios7.icons.data;" parent="1" vertex="1">
          <mxGeometry x="410" y="335.45" width="30" height="44.55" as="geometry" />
        </mxCell>
        <mxCell id="ra0EMfTkS3GhNaCGwNTb-30" value="" style="html=1;verticalLabelPosition=bottom;align=center;labelBackgroundColor=#ffffff;verticalAlign=top;strokeWidth=2;strokeColor=#FFD700;shadow=0;dashed=0;shape=mxgraph.ios7.icons.data;" parent="1" vertex="1">
          <mxGeometry x="567.5" y="350" width="30" height="44.55" as="geometry" />
        </mxCell>
        <mxCell id="2TN1YTn0bcG4XCynEjZL-1" value="&lt;font style=&quot;font-size: 15px;&quot;&gt;Raw Data&lt;/font&gt;" style="text;html=1;align=center;verticalAlign=middle;whiteSpace=wrap;rounded=0;" parent="1" vertex="1">
          <mxGeometry x="235.5" y="400" width="70" height="30" as="geometry" />
        </mxCell>
        <mxCell id="2TN1YTn0bcG4XCynEjZL-2" value="&lt;font style=&quot;font-size: 15px;&quot;&gt;Cleaned ,&amp;nbsp; Standardized Data&lt;/font&gt;" style="text;html=1;align=center;verticalAlign=middle;whiteSpace=wrap;rounded=0;" parent="1" vertex="1">
          <mxGeometry x="367.5" y="400" width="117.5" height="30" as="geometry" />
        </mxCell>
        <mxCell id="2TN1YTn0bcG4XCynEjZL-4" value="&lt;font style=&quot;font-size: 15px;&quot;&gt;Business-Ready Data&lt;/font&gt;" style="text;html=1;align=center;verticalAlign=middle;whiteSpace=wrap;rounded=0;" parent="1" vertex="1">
          <mxGeometry x="520" y="410" width="120" height="30" as="geometry" />
        </mxCell>
        <mxCell id="2TN1YTn0bcG4XCynEjZL-8" value="&lt;b&gt;Object Type: Table&lt;/b&gt;" style="text;html=1;align=center;verticalAlign=middle;whiteSpace=wrap;rounded=0;" parent="1" vertex="1">
          <mxGeometry x="207" y="455" width="110" height="30" as="geometry" />
        </mxCell>
        <mxCell id="2TN1YTn0bcG4XCynEjZL-9" value="&lt;b&gt;Load:&lt;/b&gt;" style="text;html=1;align=center;verticalAlign=middle;whiteSpace=wrap;rounded=0;" parent="1" vertex="1">
          <mxGeometry x="172" y="480" width="110" height="30" as="geometry" />
        </mxCell>
        <mxCell id="2TN1YTn0bcG4XCynEjZL-10" style="edgeStyle=orthogonalEdgeStyle;rounded=0;orthogonalLoop=1;jettySize=auto;html=1;exitX=0.5;exitY=1;exitDx=0;exitDy=0;" parent="1" source="2TN1YTn0bcG4XCynEjZL-9" target="2TN1YTn0bcG4XCynEjZL-9" edge="1">
          <mxGeometry relative="1" as="geometry" />
        </mxCell>
        <mxCell id="2TN1YTn0bcG4XCynEjZL-14" value="&lt;br&gt;&lt;div&gt;&lt;ul&gt;&lt;li&gt;Batch Processing&lt;/li&gt;&lt;li&gt;Full Load&lt;/li&gt;&lt;li&gt;Trunc , Insert&lt;/li&gt;&lt;/ul&gt;&lt;/div&gt;" style="text;html=1;align=center;verticalAlign=middle;whiteSpace=wrap;rounded=0;" parent="1" vertex="1">
          <mxGeometry x="180" y="510" width="148" height="30" as="geometry" />
        </mxCell>
        <mxCell id="2TN1YTn0bcG4XCynEjZL-17" value="&lt;b&gt;No Transformation&lt;/b&gt;" style="text;html=1;align=center;verticalAlign=middle;whiteSpace=wrap;rounded=0;" parent="1" vertex="1">
          <mxGeometry x="204" y="590" width="126" height="30" as="geometry" />
        </mxCell>
        <mxCell id="2TN1YTn0bcG4XCynEjZL-18" value="&lt;b&gt;Data Model:None(As-in)&lt;/b&gt;" style="text;html=1;align=center;verticalAlign=middle;whiteSpace=wrap;rounded=0;" parent="1" vertex="1">
          <mxGeometry x="207" y="635" width="133" height="30" as="geometry" />
        </mxCell>
        <mxCell id="2TN1YTn0bcG4XCynEjZL-20" value="&lt;b&gt;Object Type: Table&lt;/b&gt;" style="text;html=1;align=center;verticalAlign=middle;whiteSpace=wrap;rounded=0;" parent="1" vertex="1">
          <mxGeometry x="359" y="455" width="110" height="30" as="geometry" />
        </mxCell>
        <mxCell id="2TN1YTn0bcG4XCynEjZL-22" value="&lt;b&gt;Load&lt;/b&gt;" style="text;html=1;align=center;verticalAlign=middle;whiteSpace=wrap;rounded=0;" parent="1" vertex="1">
          <mxGeometry x="320" y="476" width="110" height="30" as="geometry" />
        </mxCell>
        <mxCell id="2TN1YTn0bcG4XCynEjZL-23" value="&lt;b&gt;Transformations:&lt;/b&gt;" style="text;html=1;align=center;verticalAlign=middle;whiteSpace=wrap;rounded=0;" parent="1" vertex="1">
          <mxGeometry x="355" y="550" width="110" height="30" as="geometry" />
        </mxCell>
        <mxCell id="2TN1YTn0bcG4XCynEjZL-24" value="Data Model:&lt;b&gt;None(As-in)&lt;/b&gt;" style="text;html=1;align=center;verticalAlign=middle;whiteSpace=wrap;rounded=0;" parent="1" vertex="1">
          <mxGeometry x="355" y="650" width="140" height="30" as="geometry" />
        </mxCell>
        <mxCell id="1MEsbrS8sAqf6LdHMhi8-2" value="&lt;ul style=&quot;forced-color-adjust: none; color: rgb(255, 255, 255); font-family: Helvetica; font-size: 12px; font-style: normal; font-variant-ligatures: normal; font-variant-caps: normal; font-weight: 400; letter-spacing: normal; orphans: 2; text-align: center; text-indent: 0px; text-transform: none; widows: 2; word-spacing: 0px; -webkit-text-stroke-width: 0px; white-space: normal; text-decoration-thickness: initial; text-decoration-style: initial; text-decoration-color: initial; box-shadow: none !important;&quot;&gt;&lt;li style=&quot;forced-color-adjust: none; box-shadow: none !important;&quot;&gt;&lt;b style=&quot;forced-color-adjust: none; box-shadow: none !important;&quot;&gt;Data Integration&lt;/b&gt;&lt;/li&gt;&lt;li style=&quot;forced-color-adjust: none; box-shadow: none !important;&quot;&gt;&lt;b style=&quot;forced-color-adjust: none; box-shadow: none !important;&quot;&gt;Aggregations&lt;/b&gt;&lt;/li&gt;&lt;li style=&quot;forced-color-adjust: none; box-shadow: none !important;&quot;&gt;&lt;b style=&quot;forced-color-adjust: none; box-shadow: none !important;&quot;&gt;Business Logics&lt;/b&gt;&lt;/li&gt;&lt;/ul&gt;" style="text;whiteSpace=wrap;html=1;" vertex="1" parent="1">
          <mxGeometry x="510" y="520" width="170" height="110" as="geometry" />
        </mxCell>
        <mxCell id="1MEsbrS8sAqf6LdHMhi8-3" value="&lt;ul&gt;&lt;li&gt;Data Cleaning&lt;/li&gt;&lt;li&gt;Data Standrization&lt;/li&gt;&lt;li&gt;Data Normalization&lt;/li&gt;&lt;li&gt;Derived Columns&lt;/li&gt;&lt;li&gt;Data Enrichment&lt;/li&gt;&lt;/ul&gt;" style="text;html=1;align=center;verticalAlign=middle;whiteSpace=wrap;rounded=0;" vertex="1" parent="1">
          <mxGeometry x="340" y="600" width="145.5" height="30" as="geometry" />
        </mxCell>
        <mxCell id="1MEsbrS8sAqf6LdHMhi8-4" value="&lt;br&gt;&lt;div&gt;&lt;ul&gt;&lt;li&gt;Batch Processing&lt;/li&gt;&lt;li&gt;Full Load&lt;/li&gt;&lt;li&gt;Trunc , Insert&lt;/li&gt;&lt;/ul&gt;&lt;/div&gt;" style="text;html=1;align=center;verticalAlign=middle;whiteSpace=wrap;rounded=0;" vertex="1" parent="1">
          <mxGeometry x="337" y="500" width="148" height="30" as="geometry" />
        </mxCell>
        <mxCell id="1MEsbrS8sAqf6LdHMhi8-5" value="&lt;b&gt;Object Type: Views&lt;/b&gt;" style="text;html=1;align=center;verticalAlign=middle;whiteSpace=wrap;rounded=0;" vertex="1" parent="1">
          <mxGeometry x="520" y="455" width="120" height="30" as="geometry" />
        </mxCell>
        <mxCell id="1MEsbrS8sAqf6LdHMhi8-7" value="No Load" style="text;html=1;align=center;verticalAlign=middle;whiteSpace=wrap;rounded=0;" vertex="1" parent="1">
          <mxGeometry x="520" y="485" width="60" height="30" as="geometry" />
        </mxCell>
        <mxCell id="1MEsbrS8sAqf6LdHMhi8-8" value="Transformations" style="text;html=1;align=center;verticalAlign=middle;whiteSpace=wrap;rounded=0;" vertex="1" parent="1">
          <mxGeometry x="537.5" y="510" width="60" height="30" as="geometry" />
        </mxCell>
        <mxCell id="1MEsbrS8sAqf6LdHMhi8-9" value="&lt;div&gt;&lt;span style=&quot;background-color: transparent; color: light-dark(rgb(0, 0, 0), rgb(255, 255, 255));&quot;&gt;Data Model:&lt;/span&gt;&lt;/div&gt;&lt;div&gt;&lt;ul&gt;&lt;li&gt;&lt;b style=&quot;background-color: transparent; color: light-dark(rgb(0, 0, 0), rgb(255, 255, 255));&quot;&gt;Star Schema&lt;/b&gt;&lt;/li&gt;&lt;li&gt;&lt;b style=&quot;background-color: transparent; color: light-dark(rgb(0, 0, 0), rgb(255, 255, 255));&quot;&gt;Flat Table&lt;/b&gt;&lt;/li&gt;&lt;li&gt;&lt;b style=&quot;background-color: transparent; color: light-dark(rgb(0, 0, 0), rgb(255, 255, 255));&quot;&gt;Aggregated Table&lt;/b&gt;&lt;/li&gt;&lt;/ul&gt;&lt;/div&gt;" style="text;html=1;align=center;verticalAlign=middle;whiteSpace=wrap;rounded=0;" vertex="1" parent="1">
          <mxGeometry x="495" y="630" width="145" height="30" as="geometry" />
        </mxCell>
        <mxCell id="1MEsbrS8sAqf6LdHMhi8-10" value="" style="image;aspect=fixed;html=1;points=[];align=center;fontSize=12;image=img/lib/azure2/analytics/Power_BI_Embedded.svg;" vertex="1" parent="1">
          <mxGeometry x="717.75" y="287" width="35.25" height="47" as="geometry" />
        </mxCell>
        <mxCell id="1MEsbrS8sAqf6LdHMhi8-24" value="" style="shape=image;verticalLabelPosition=bottom;labelBackgroundColor=default;verticalAlign=top;aspect=fixed;imageAspect=0;image=data:image/png,iVBORw0KGgoAAAANSUhEUgAAADAAAAAwCAYAAABXAvmHAAAACXBIWXMAAAsTAAALEwEAmpwYAAABH0lEQVR4nO2XvQ2DMBBGbwHvkSY70GUIKOhpqIAmE6SAOqFIJglVZskWF1kKkgt+fNhgjO9JnyxZFPd8trABmGHK+hFVTYtyBB8pWcDRqvcp6nsut5Ac1XnYM1XT4lycFohPQJk1OpBebygDLgVMDnHKAhoE1QEqKQsMrDQ1QFhpaiAogTGCOgPf4ox9dL5PWUAD7sAWW6ic+IO66ECcvaMk61COxgIUqAJjhCFQLrzHq0UuDYwUrST/C+TqvJWX1FoCSdbhXI7VAe/PQDACn9MJZdYQEJcXyhgLTOFCwCosMIHgDljeQlSEzQ70hVJDKZQaCErA+y00RlACMfEPKlhAg8N3IDa4x4stBOYgv6T2htFLam9Yvce7gAUY8IMfuT9B6eZNKYoAAAAASUVORK5CYII=;" vertex="1" parent="1">
          <mxGeometry x="757" y="287" width="43" height="43" as="geometry" />
        </mxCell>
        <mxCell id="1MEsbrS8sAqf6LdHMhi8-26" value="&lt;font style=&quot;font-size: 15px;&quot;&gt;BI &amp;amp; Reporting&lt;/font&gt;" style="text;html=1;align=center;verticalAlign=middle;whiteSpace=wrap;rounded=0;" vertex="1" parent="1">
          <mxGeometry x="682.75" y="350" width="140" height="30" as="geometry" />
        </mxCell>
        <mxCell id="1MEsbrS8sAqf6LdHMhi8-29" value="" style="shape=image;verticalLabelPosition=bottom;labelBackgroundColor=default;verticalAlign=top;aspect=fixed;imageAspect=0;image=data:image/png,iVBORw0KGgoAAAANSUhEUgAAAgAAAAIACAYAAAD0eNT6AAAACXBIWXMAAA7DAAAOwwHHb6hkAAAAGXRFWHRTb2Z0d2FyZQB3d3cuaW5rc2NhcGUub3Jnm+48GgAAIABJREFUeJzs3X2c1XWd///H63POMFwIDIIXjOBVggorw5WVoK6Wm1ra1QbJoJbl2qVWW1vZd3dj27a2/damqZX+1q+lcHDHbVfTTSsTLwAzgZkBh0jITC5NgUEuhznn/fr9MQNios5nOJ/zOXPO8367zU0GzvvzeeIczuf5uXp/QERERERERERERERERERERERERERERERERERERERERERERERERERERERERERERERERERERERERERERERERERERERERERERERERERERERERERERERERERERERERERERERERERERERERERERERERERERERERERERERERERERERERERERERERERERERERERERERERERERERERERERERERERERERERMqapR1ApMSs/pzPD6czPzyKwtDgDMFsEBb6e4iGRhYGBaL+Zj6UQNYiH3zgYA/RYUTUvGqp7tvMPLz8re3F2Am2h+C7Hdsa4Xug69cQ7YmiwjYrsLl2iG1ec/8NHSX4u4uI7KcCIBWh/pzPj7D83mMgjA5RdIy5HQM+GmM4znB4xVc5vu93AJuBF4EXcdts5n8Cfw6L1ruH9Xhm7cjduzcuXXpLZ8pZRaQClOMHocirnHTh1bU7d2ZONA9jzfykEBhjxknAccAooH/KEUslAM87rDX4PdgaJzyd8cxqr82vWf+rmzanHVBE+gYVACkrU6ZcVbNpQO24gE0wvAFsAuZjgGOBKO18fcAWhzWGtbmF1sii5ZlCZ8tzC3+wNe1gIlJeVAAkNePHz+nXPuKFKQR7azCbaPgE3MYB/dLOVoGeA1vuFlrNoycDvnjTYze8kHYoEUmPCoCUzOFvuXpI/xreTGRn4j4dmA4MSDtXFduI2UInLCJECzcuPLwZ5oQ3HiYilUAFQBJz0oVX1+7azlnABRgXAOPQe66cbcb5FfgDNZZ94I+PXbcx7UAikhx9GEtRHXX2p0/Iul3gxoU4bwMGpZ1JesUxbzXn/mD+wMboiMU8PCefdigRKR4VADlkI6d96jiy9l5zmwFMQ++rSrTF4H/duWvY1uE/b2ubszftQCJyaPRBLb1y1LSPH5nN1lzmTiMwOe08UlJbMO5240cbH7lhIeBpBxKR+FQApOdmzMgcs/HICz2yj+B2ERxkRjypNqsdfpTJZ3+87vHvrk87jIj0nAqAvKEjzvnkYdl8ttHMPw+MTTuPlKUA9jML/i/rF93w67TDiMgbUwGQ13T8OZ+t6ywU/s7hk0Bd2nmkbzB4BPOvrX/0xofSziIir00FQF5l/Pg5/bYM2/JhM/9n4Mi080if9SCEL2147KZlaQcRkVdTAZBXqD/7mmm4/wgYk3YWqQjB4bpMPvv36x7/7u60w4jIy1QApMuMGZn6TSO/Af55IJN2HKk0/tuIzCXrHrt+edpJRKSLCoAwfvycfluHb5mL+4y0s0hFa8ejizcsvH5h2kFERE9XE0AbfymROiw8cMyZn9KdJCJlQAWgytWfdc0l2vhLCQ1yi25NO4SIqAAIfnXaCaTqnDnq7E+flnYIkWqnAlDlDD867QxSfUKwo9LOIFLtVACqnGNPpJ1Bqs5esv1a0g4hUu1UAKpcyGS+AmxPO4dUlX/d8PB3Xkw7hEi1UwGocpsevu5ZzP8G0LPeJXnOY8O2DP+XtGOIiOYBkG71Z3/63bjdCQxIO4tUJjPu950dH9iw9JZdaWcRER0BkG4bHr3xpyGE04GlaWeRipPH+Fbd5uHv1cZfpHzoCIC8wpQpV9VsHFh7LfAlYGDaeaTPaw1R9DebHrn+ybSDiMgrqQDIQY2e/un6kOGr7vYRIJt2Hulz1rrb1zeO3Hgrd91VSDuMiLyaCoC8rvrpnzmZKHwBuAyoTTuPlL3Vhv97TWbHj559+Ed70g4jIq9NBUB65Mi3fOaoTG3hanP7G+DItPNIufFHge9ueGzET2FOSDuNiLwxFQCJZ8aMTP3Go88lsqtwfx86PVDNNmLcFeH/se7RG1ekHUZE4lEBkF6rP/MzxxIVGoEP4jYx7TxSEtsMfgr85/rM8J/z8BzNHyHSR6kASFF0XyvwQeADgB70Ulm2GPyvO3cNHMwv1tx/Q0fagUTk0KkASNEd+ZbPHFVTUzgbs4sdLgKGpZ1JYglAM8aDBB4cubvjkaVLb+lMO5SIFJcKgCTrnDnZkb75DNzPN+cssNPRbIPl6Hdgi3H/Jdl+v9Rc/SKVTwVASuucOdmjO1842SwzPTI/0+Fs4Li0Y1WZPNCKsciCL8yH/CPPL/7hn9IOJSKlpQIgqRs57VPHWcYmgU0wp8GNBuBE9P4shnbw5UArRMs9hJZBQ2yFzuOLiD5gq9nc5tO5dFJZTtE6YvoXB/eLdk0wOC0QjTUYAz4GOAHol3a+suM8j7EabLXDaoOVIRO1bnr4umfTjnZQt7ceSaYwgNmT/5h2FJFqpQJQxSzXst7MFgWLruWS036fdp4emTEjc9TGUcdF1jnGLDoJD8fjUT34aDM/xrFjqMQZC7s28BvA1jusi5x1HoU1HqI1HZ2+essTN7yUdsQeaWrrR37vJw37R8c+RGPDvWlHEqlWKgBVzHIt64F6oNOM20Km5qvMHL8p7VyH6qhpHz8yS/96os5RRJnhBIZjPtzhCMxH4AwHGw4MB/oDdSWOuAfYbfjWgL0YGZtxXgQ20/XrzcAL7tGmQlRYP3iQbejzh+zdjVzLB8z4JtibABx7twqASHpUAKrYAQVgn5cMvh+yNddXQhGIo37KVQOjfoP6d2aoM987wLABZra/GAT3moxx2P4BUWQE7w++e/9riPKGb395qdEex3cHMlv7eeces8Lu5xb+YGuJ/krlYcGCLBsPn2GEL4NNOPCPVABE0qUCUMUOUgD26TDjxyH4t5k9aXWpc0kFuHfJQHZkrjDs8zgnHOwlKgAi6dI87nIwte5cZWZXkmt9yD3cwo7C3XxsqiaDkdd3R+vJUdav8O1+ZfdpFhEpUyoA8noi8PPM7DwGZzdarvlHAZtH48S2tINJGbmtuY7+9n6Dj+A+3R10cFGk/KkASE+NdOxag2vJtaxwyGF+J7MmPZt2MElB0+IB5AdebDALuBCvwDsvRCqcCoD0xmkG38Ttm+RaVppxb3DuY1bDIsw87XCSkNySEXjNO6OIizzvFwCD044kIr2nAiCHapw74wy+xPzW9ZZrvj+YPUinLeDyBk0v25c1tfWjs/DWyMLbHc4HTsc8clU8kYqgAiDFdIxjV5pzJVl3ci3LDX4V3B+lxhczc/ILaQeU19HU1o98xxQsM91CeBv5zrMxBml7L1KZVAAkKQY0ODSY2d+SN8i1PG3G4oAvBlvCS/mndGdBiuavGI3np0TYGQ7TyHdOhag/7mC6iE+k0qkASCmNdWesYR8GYHC2g1zrCjNfFgJLMVZCfhWNU/Uo2mL62epatuweixVOiSImuttkYApeOAIM7eGLVCcVAElTLfhUd6a+vMOZhVzLVuAZM3smhLASaIPMMwwb8BTvHNO3p8RN0rzlw4ATwcdHkY8DO9Hdx9O+82QiMmDo/L2I7KMCIOVoGDDF3afY/mYQoH3nXnIta8DXmNlzIdhGYB0R67H8BqL+a5k5fkeKuZNz85IahtQeDfnRENUTOCYijMJspGMngp8M4fB9L+/a0GtrLyKvTQVA+pJ+wDiwcV2nqbs3cA54BkIn5Fq2A2vBNhisx3xTCGzFaMdoJ9BOZO24bSObaWfnwHauOGFPSf8Wczxi3Mo6Ogt1ZLyOQB3udRhDMeoipw5nuJuPpuvphvXA0XjBui6tcDDw/ZPtaEMvIvGpAEilGQyMAx+3byfYDtxOGt27xw75ALXbINfSAbQDL3V/7Xt9+/6WYew02Nv1+74XY2f3a7KY7b8f3p1h+8ebH4ZT0/1dLW5DMK+D1iHku7OEfa99OePLE+npQjwRSY4KgAjUAkd1f73MYP/etf/ZfvaB37zWifU//23NkSQiZSRKO4CIiIiUngqAiIhIFVIBEBERqUIqACIiIlVIBUBERKQKqQCIiIhUIRUAERGRKqQCICIiUoVUAERERKqQCoCIiEgVUgEQERGpQioAIiIiVUgFQEREpAqpAIiIiFQhFQAREZEqpAIgIiJShVQAREREqpAKgIiISBVSARAREalCKgAiIiJVSAVARESkCqkAiIiIVCEVABERkSqkAiAiIlKFsmkHSMyMGZlRzx81Ll9gVMY4LO04SVu/8Ma70s4gkrSRZ14zJSKcmHaOJLnRaZE/X2M1v3324eva084jlaviCkD9OZ8f4YXOr9gmvzzA8CgCTztUaVjaAUSSFkXhKne7Ku0cSfNg7KXQWX/W1b9wt69uXPi9pWlnkspTUacARp119Zsp7F1u+OeA4WnnKX++O+0EUsWMXWlHKHM1wLvM/ImRZ3/6M2mHkcpTMQWgfvpnTg7wADAy7Sx9SFvaAaRqBfKdK9MO0UdkzO26+jOv/kjaQaSyVEwBwMIPgGFpx+hL3Lk57QxStX7KZVM3ph2iTzG+d9xZn9UOjhRNRRSA+rOvmYZxbto5+pzZk35mzn+mHUOqzla3zDVph+iDBu21/KfSDiGVoyIKgLm/K+0MfVUYkv8I8HDaOaRKOLvco/cy67S1aUfpi8ztorQzSOWoiALgeEXfFpSoi6fu8o6hFxrMTTuKVLwNDucye8KjaQfpw/RZJ0VTEQUAs0FpR+jTrjhhT5jVcLmbfxrXldmSALN7PG+TmD3xN2lH6eMGpx1AKkdlFAA5dGbOrEk3OdFp4P+VdhypGM+42Qyf1fBeLm/4U9phRORlKgDySrMnPOONk2Y4nIXzZNpxpM/a5vgXvW7QOGY1qFCKlKGKmwlQiqRx4kKHN5NrOdOML+G8C802KG/seXf/IWSuZ/aErWmHEZHXpgIgr6+rCCxk3vIpkYXPOnwA6J92LCk3tsQ93ERNvxwzx+9NO42IvDEVAOmZ2ROWBriMecuvgTDbjI8CE9OOJanaasa8YOE/uGRya9phRCQeFQCJp+uw7o0ON3J76wlkeLdFPgNnetrRpCTazbk3mN1FNvtz196+SJ+lAiC9d3nDH4DrHa5n7rJxZDIzzP29QAO6XqCSvGD4/SHYXfSr+YU2+iKVQQVAiuPSySuBf3L4J5qWHUGnnRNhF7vxLuDwtONJLAWgxYwHg3MfTzcs9jkW0g4lIsWlAiDFN3PyC8BdAe6iqSlD/qQ3Y5l3mHMm+FvQZCblpgDeZkQLg7GAPeFBrpjU7mmnEpFEqQBIsmbOLACPA4870FUIxp6CMz2CM92YAoxLNWP12YnRYrAwuC0im13EzPFbtMEXqS4qANVsbvPpXDqptJP9dBWCNqAtwC0A3LFkJJmaBtwbImOiYw3gY4FMSbNVpo3AcjNaglsrodDKMdue5txz86lu8G9vPZJMYQCzJ/8xzRgi1UwFoIpZZHfb/NZFwaJrueS036cWpOu58BuBB/afaG5aPIBC//EQTYicMQ5jwMeAjQEGpJa1PBUwniOw2mB1wFZjYSX5qHXf9Ltls3ff1NaP/N5PGv6PTuZDgAqASEpUAKqcu88wL7zHci03h2z45+7z9+mbOW03sARY8oqrz9yNO58ahYcxuJ8UwWjMRrv7KMzqwY8FKu3hUJ24bSTyteasx1kfzJ/Domdwe5ps5pl9k++UzYb+z83xiDEtsyzf+XWw41NOIyKoAEiXfg5XWz76kOVavh+yNdczc/ymtEMdlJkDa7u/HjropelNS4aSz44Cr8c4ArfhEYzAGY4x3OFIYDjGEJw6YCBQW6K/QQC2AbvAXgJ/EdhsxmacFwK8CP4iwTaDP48X1nHplE3df+/y3cC/lgULsmw8fIbR8mWwCWnHEZGXqQDIgYY4fNnynZ+z+S0/DsG/zexJq9MOFdvMqdvo2si27futN7yHbY5HjFkxlJowkI7CAKKaoRAyEIa84nWWGYqHVz9Ey6LteCG//3u33VhmD5nOXezN7iFj7QwbsIt3juk42Opfd8N+2RuFL0P3LhnIjswVtsk+D36CpoUQKT8qAHIwte5cZWZXkmt9yD3cwo7C3XxsamfawRLTdZ/71u4v6a07Wk+Osn6Fb/crwYanHUdEXpsKgLyeCPw8MzuPwdmNlmv+UcDm0Tix7Y2HStW4rbmO/vZ+g4/gPt0dtMcvUv5UAKSnRjp2rcG15FpWOOQwv5NZk55NO5ikoGnxAPIDLzaYBVyIl+waChEpEhUA6Y3TDL6J2zfJtaw0497g3MeshkX7LlaTCpRbMgKveWcUcZHn/QI0o6NIn6YCIIdqnDvjDL7E/Nb1lmu+P5g9SKct2HcPuvRRTW396Cy8NbLwdofzgdMxj1wVT6QiqABIMR3j2JXmXEnWnVzLcoNfBfdHqfHFZTPHgBxcU1s/8h1TsMx0C+Ft5DvPxhik7b1IZVIBkKQY0ODQYGZ/S94g1/K0GYsDvhhsCS/ln6roOwvK3fwVo/H8lAg7w2Ea+c6pEPXHHUwX8YlUOhUAKaWx7ow17MMADM52kGtdYebLQmApxkrIr6Jx6ovpxqwwP1tdy5bdY7HCKVHERHebDEzBC0eA9b3JhUSkKFQAJE214FPdmfryDmcWci1bgWfM7JkQwkqgDTLPMGzAU681kY4A85YPA04EHx9FPg7sRHcfT/vOk4nIgKHz9yKyjwqAlKNhwBR3n2L7m0GA9p17ybWsAV9jZs+FYBuBdUSsx/IbiPqvZeb4HSnmTs7NS2oYUns05EdDVE/gmIgwCrORjp0IfjKEw/e93PvmxMEiUkIqANKX9APGgY3rOk3dvYFzwDMQOiHXsh1YC7bBYD3mm0JgK0Y7RjuBdiJrx20b2Uw7Owe2c8UJe0r6t5jjEeNW1tFZqCPjdQTqcK/DGIpRFzl1OMPdfDTYMUA9cDResK5LKxwMfP9kO9rQi0h8KgBSaQYD48DH7dsJtgO3k0b37rFDPkDtNsi1dADtwEvdX/te376/ZRg7DfZ2/b7vxdjZ/ZosZvvvh3dn2P7x5ofh1HR/V4vbEMzroHUI+e4s+x5ScEDGlyfS04V4IpIcFQCRricBHtX99TKD/XvX/mf72Qd+81on1v/8tzVHkoiUkVc/1UxEREQqngqAiIhIFVIBEBERqUIqACIiIlVIBUBERKQKqQCIiIhUIRUAERGRKqQCICIiUoVUAERERKqQCoCIiEgVUgEQERGpQioAIiIiVUgFQEREpAqpAIiIiFQhFQAREZEqpAIgIiJShVQAREREqpAKQDUzOtKOIFUscr3/RFKkAlDNnN+lHUGqlhPlV6UdQqSaqQBUMTd+lHYGqVb2K2ZOfS7tFCLVTAWgml3S0IT7/WnHkKqzxyM+l3YIkWqnAlDNzNz30oizLO0oUjU63eyDXNLwVNpBRKqdCkC1u2JSu1v+fODhtKNIxWt37N3Mavhp2kFERAVAABqnvujb8+8w/JtAIe04UoGMX3uhcDqNDQ+kHUVEuqgASJePTe0MjZO+4sHPwFiUdhypFL7Z4Ro/eutZXDZlTdppRORl2bQDSJm5dNKTDmeSa73Y8OuAE9OOJH1Spxm3hYz/PTMnvZB2GBF5NR0BkINrbLjX6waNc+OjwMq040ifscPw6918bJg18WPMnKyNv0iZ0hEAeW3vHNMB/D93v415re+yrlu3zgUs5WRSfta62w/BfuCzJ2xNO4yIvDEVAHljZg7c53Af81eMJhQazfgEcFza0SRVBbAF7uEW6tv/h3PPzacdSER6TgVA4pl12lrgWz7H/y9jW6dFzgw3ZgJHpx1NSqKA8WsPdhcW3Unjac+nHUhEekcFQHpnjgVgYYCFNDX9LZ0nnRtF0Qx33gMclXY8Kaq9YI+6+11Y/r+ZNfXFtANVic3As2AbgReMsClgf0o5k1QQFQA5dDNnFoAHAzwIfIxcy3ici8zsPPCzgX4pJ5S4jD8Y/DIEf5Cawi+YOXVb2pEqVCewCrzNsRUYq6J85pnagbv+8MyDt+j/uSRKBUCKr3FiG9Dm8C2algwlX3NeZP4Od84ETkUXEZajFzBb7PAQ5g9wycSnPe1ElcfBV4E9YfgTFLK/PrpjV9vSpbd0ph1MqpMKgCSra8/xJwF+AsCtqwbTf9dbwM40i6aDTwcGpJqxOj1jzqIACzEWMathZffFnlJU/lvcHvKIhzKd2YfXPf7dLQf+6fq0YomgAlDd5jafzqWTnizpOj96yna6ThU86AA3L6nhsH4TwCdG5g2OTQBvAOpKmqtydYL/1txaQ2TLCYUWamqXMXP8llds7RtLnOr21iPJFAYwe/IfS7zmpO0BfuVuP80UMv+77vHvahsvZUsFoIpZZHfb/NZFwaJrueS036cS4mNTO4GlwNJw4O/Pbz6eQAPGX0Qw1onGgI8BRqSSs/ztAVZjrDZYHdx/i9NKTb+VzBy/t2x27Zva+pHf+0nD/9HJfAiohAKwC7jHjf8K/Wt//vwvvr0z7UAiPaECUOXcfYZ54T2Wa7k5ZMM/l83MbbMmPQs8C9zzimIwb/kwCPvKwJgosuM8UI8xChgNDC551tLYC2wA1hm+Fmd9iOz3YKvJdK5mxpS1+w7hl83G/kBzPGJMyyzLd34d7PiU0xRD3vFfYJbLR4V7Xnj4+zvSDiQSlwqAAPRzuNry0Ycs1/L9kK25npnjN6Ud6qC6Zpn7TfcX4c///NZVg6ndNZpsNIrgI8FGRDAC4wh3hgPDwUaAd/+aTEnzv9JL4C+AvQi8aPhm3DYH8824vYDZRiLWE2U3HPjzKMsN/GtZsCDLxsNnGC1fBpuQdpxDZr4ebC4h+v7Ghdc/l3YckUOhAiAHGuLwZct3fs7mt/w4BP82syetTjtULF3XGKzkgOcXvKokHKiprR+dhUFEhaFYGEChZiDmXb8ODAQgsojA0FeMMx+KWwT2EvjLj1CO2E3wPV2voRP3HUSZ7Xi0G/cd2N6XyA7Yw8zxr9pj7FMb9jdy75KB7MhcYZvs8+An9PEbPxz4WWT2/XWPDn8A5rzuW0qkr1ABkIOpdecqM7uSXOtD7uEWdhTu7j5fX1lmjt9L1+F1zV9fDHe0nhxl/Qrf7leCDU87ziHqMGgqhPCtTYtuaks7jEixqQDI64nAzzOz8xic3Wi55h8FbF73ff4iXW5rrqO/vd/gI7hPd4c+vsf/kjvfC6HzhucX/1Az70nFUgGQnhrp2LUG15JrWeGQw/zO7ov1pNo0LR5AfuDFBrOAC3Fq045UBDsxbs13RN/40xPX6xkHUvFUAKQ3TjP4Jm7fJNey0ox7g3MfsxoWaTKZCpZbMgKveWcUcZHn/QIq546LDvAbyNR+a8PD39FzDqRqqADIoRrnzjiDLzG/db3lmu8PZg/SaQu4vEGHT/uyrgsk3xpZeLvD+cDpmEdeURXP7ssU/LNrF9+YzjwYbyS3ZARW8yZCOJaIIyEaEbkPBx/hbsMxi3AfihHhGEYd+69nse7/hnYz20ZgY4jsBZwXoLAB51lWT1rb/WAvqUIqAFJMxzh2pTlXknUn17Lc4FfB/VFqfHHZzDEgB9fU1o98xxQsM91CeBv5zrMxBlXU9r6bw2+iKHx2/SM3PZ52FtyN/3zqRELomg3T/VSwNwEnAkNxB7Pu20S8+24R677Mwl++3OJVl134/j9w7x6yv71FXa8f29pBrmUNsNrg6YC1EPlSPtiwWkfzKp8KgCTFgAaHBjP7W/IGuZanzVgc8MVgS3gp/1RF3lnQV8xfMRrPT4mwMxymke+cClH//RucyrTNzb+68ajnb+Suuwpv/PIE3NZcRz+mRRZNc8JZzG+dRPfplBQuoKwFxgPjuzqCd903O7/1JXItywx7Mlh4hF0DHu2+xVYqiAqAlNJYd8Ya9mEABmc7yLWuMPNlIbAUYyXkV9Go580X1c9W17Jl91iscEoUMdHdJgNT8MIR3R/5VcLus4x/YsPDN64r6WpvXlLD4GhahJ3v2AVAAxB17cuXbdEaApzj+Dnm9ncM2JMn1/Ibcx4KRL+kZtWi7seASx+mAiBpqgWf6s7Ul3c4s5Br3ozZKoNVwf13EK3Cwyrq2//Auefm0wxc1pqWHUFn9lSiwsmR28mOnQrhZNp3Hk9EZv+h4OqzCeeqDQu/d2/J1nh76yCy/q7I7APufj5dk2z1ZVlgmhvTjPD35Me+YPNbfhoK3E3n0Ae54oQ9aQeU+FQApAzZcJzpDtMNo+s8p8HGYXu7zlf6GjN7LgTbCKwjYj2W30DUf+3BZtirCDcvqWFI7dGQHw1RPYFjIsIozEY6diL4yeQ5HAvg+/bqy3oPszTM7iKq+WRJru5vautHZ+dFZjTifiEw0Cu3cR3hzkct4qPUbtth81r+J5j9iKcnPKyLCvsOFQDpS/oB48DGdZ2m7v5wdcAzEDoh17IdWAu2wWA95ptCYCtGO0Y7gXYia8dtG9lMOzsHtpd872WOR4xbWUdnoY6M1xGow70OYyhGXeTU4Qx389FgxwD1wNF4ofvKr64Lv3z/xr1iNzKHoh3sExse/d6dia8pt2JCRP4jnu+cjXU/rbK6etdhblxm+GWMbX3W5zX/mEL0Yy5v+EPaweT1qQBIpRkMjAMft+/ReHbgdtLovtLKIR+gdhvkWjqAduCl7q99r2/f3zKMndY1ZTC478XY2f2aLGb774d3Z9j+8eaH4dR0f1eL2xDM66B1CPnuLPv2lQ7I+PJ1YNW1FSmipZkCH1y7+HvJ3dq3YEGWDXXvs8g+gxemu35W+xxvZl8l6/9Arvk+d7uO2RMXpB1KDk4FQKTrSuijur9etu82q+7/vGI/+8BvXusw75//tu6qSpyZ31K3ecTVbW1z9iaygltXDWbA7k/YRvs0xmgdfHlNEdi7zXg3uZZWd7+Omn657mdvSJlQARCRSrDD8Q9vePTGn6xPYum3rhpM/z2fNNvzRbA/A2keAAAgAElEQVTDk1hFBWsws9vId37N57V+h71DbtZFg+UhSjuAiMghWgvhLzc+duNPir7kprbDmNc8xwbsWWfGvwLa+PfeaDO/zmq3rWJ+899w85KaNx4iSVIBEJG+bGGh0Dl1w2M3LSvqUm9eUsO81k9YvnONmX2VrvvipTiOM7dbbEh2Jbnm96YdppqpAIhI3+R268hdHW8r+iN7c60X2ODsCjP/Pn9+XYgUj3OSYf9juZZfceeyhrTjVCNdAyAifY/xrQ2Pfe/aDcW8B3LesuPMou+Cv69oy5SeeJuFaKnlWv4jdPiXuWJSe9qBqoWOAIhInxGCubl9fsOjN3yZYm38m5oy5Jr/zohWAtr4pyPj8DGrtZXMa3l/2mGqhY4AiEifkXX/2tpFN2wo2gLvWHqS5TP/DzhLt/KXhZFm/IT5Lfd5wT7BpQ2lfW5DldERABHpM9YuurE4G/85HpFr/qJlMiuAs4qyTCke5yKLvJVc61+nHaWSqQCISHW5vfVIG9v6v4Z9C+ifdhx5TYcb/l/RvJbbaWo7LO0wlUgFQESqx/zmd1nWnwIuSDuK9Iwbl1m+80nmt0xKO0ulUQEQkcrnbsxr+ZK5/RQ4Iu04Etsp5jzO/JaPpB2kkqgAiEhlu3XVYJvf+t/dM/npM6/vqjXn1mh+y82aRbA49I9BRCrXvOYxNmDPk4BmnKsQ7lxlg7O/oGmZjuQcIhUAEalMc1vfamYLgZPTjiJFd44Voie4o1U/20OgeQBEpPLMa55h5rdTuVf5B/CtYNsAcNqx/RMj9QMGARlgGJX6HAPnBMv4Yz6v5SJmT/xN2nH6IhUAEaks81o/YeY30rePcOaB34OvMGxlwJ+BaC2RryPKP8/Mqdt6vKQ5HjF26eFENUfj4TjcRkVworufhtk44LjE/hbJO8KMh3xe80xmT/pZ2mH6GhUAEakcuea/M/xb0Ofm9dsN9hvDHwkeHqOQeZzLG3ZCEeY7nmMBeLH76ymAcOCf55aMgMyZkdvZbnYW+CS6jh70FYPM7B7PtV5OY8P8tMP0JSoAIlIRovktX3PnH9LOEcNKd78LswepG/Qk7xzTUbwnG8XQOPVF4O4AdwNw66rBDOiYHsH5jn8AGJVGrJiyht/h85ojZk+al3aYvkIFQET6vvmtX3X3vrDx/6M59wTjLhonLkw7zEF99JTtwAMBHmCOf56xrdMiZ4YbM4CRacd7HRkz+7HnmrM0Tvpx2mH6AhUAEenbcs1fNPc5acd4Tc4uM+4IHv1/zJ6wNJW9/N7qOn2wMMBCmpr+lvzJfxkZH3f391Ge24+MYbd6rqVA48S5aYcpd335Ihl5hTnxf5Zu+QSCiPRU5yEvYV7Lp7vn9C9H6x37iuc7jg2NEz/O7AlL0w50SGbOLNDY8FCY1TDTs/k3GfZ/gfa0Yx1ExuA25je/K+0g5U4FoEIcf057/Ft9zNckEEWkZ6Jo9SGNn9/6ATOuL1KaYmp289m+PX8CjQ3f5ENv2Zx2oKKbOfW50NjwRc/WjHbzT2P8Ie1IfyZrwZrILTsj7SDlTAWgQuRDiD0rlrvlksgi8oaMX3PJab/v9fhcy5nmfgfl9Rn2R3e/1J9umMqsSTk+NvXQj3CUu5njdzBr0k2eqTnF8c+Bl0/ZMQYa0X3MXTYu7Sjlqpz+8cghKHiYEHtQ/ZYfA08UP43I6+r0wGd6PfqO1pMN7qF8Jvlpd/yL3jH0FGZPmtd93ry6zBy/l8ZJ13kHJ5nxLWB32pG6HW6WuZ/ciqPSDlKOVAAqhMFbYw8699y8W2YG8GzRA4kcnLvx8V7P3HZbc51l/B7g8OLG6pVgcIN3dpxE46T/yxUn7Ek7UOqumNQeZk38slvmZIM7044DgPmxRuG/aGrrl3aUcqMCUDHsr+nN5CezTlvrHs4BX170SCKvtMeNDzFr4v/r1eimpoz1I0d5zO2/2uEvQ+PEayryHP+hmnXa2tA4cZa7vxfYlHYc4Mwon78x7RDlpq/NlnVQ9Wdf/VOci9POkTqz6Rse/d7iXo1tajssynd+z+GKIqcSAXjag1/KpZOe7O0Covkt/+rOl4oZqheCOdeHIfm/5+Kpu1JJsGBBlg1Dj8GzQ8AHYYXDiDJ1hHAYAFG0g1BoxzM7wHZi+ZfYETakdk1CU9vhUb7zeodLU1n/Adz808yadFPaOcqFCkBl+emGx254zyEtYX7zu8zt34GxxYkkVW6P4d8NgwtfP6QNZtf78l7S/Mwy1njBP8ylkxaVZH0LFmTZMGwy2GmR+Vjv+jd5KnAiUBNzaZ3AM5itMufp4PyOiKc4estSzj23NLcD51ovNvwW4OiSrO/gOt05Uw8P6qICUFk88uiMdQuvP7QL+25eUsNh2SvM+DqgZ25L7xj3eYg+w+wJzxzScua2jrLIm4ERxQnWG/Yz7wizuWJSsve9z1t+IoTzosjOc/fz6HqaX5J2gj3u7g9iLGLk1l8nWgjmL6s3z/wXeJq35z3j2fzkWA9UqlAqAJVnxchdHVOWLr2lCJOsLB+GFT5p2NWArqKVnigY/CR49G9FmfimqSlj+bELgLMOPVqvuBlfD79rmJPY1f25ZWdEHl3uxgdIteQAsMWwnwTjDi6ZsBCz4k9c2NTWLyp03uDOVUVfdg8ZPj80TmpMa/3lQgWgArnz9Y0LbyjevOi3/aE//dsvM48+B35q0ZYrlWS7GT8OIfruIe/xHyjXeq3h3yja8uLZ7vjlNE66u+hLnt98PMEuM+MyYEzRl18czxjMDYXCHVw2pfiThs1v/htzuwGoLfqye8DhIzROvC2NdZcLFYDKFHDeu2HhDfcWfclzm6dHGbvSnRnAoKIvX/oYe9zN/4NMTRMzx+8o6qJzKyYYhSeB0t++5face+FCLp28sqjLndt8umWi/4P7u+k7n7+O+wPu/EvRr3/ILTvDsHvBhhd1uT2z3bP5v2Dm1OdSWHdZ6CtvwNelAnBQu/Do/A0Lr0/miWNzfz2EqP+7DZ8Bdj4ptXhJxVMOd0HUROOEVYmsoamtn+U7nwAmJrL817fas/nzirphmLf8bCP8H4x3FG2Z6XjY8W/QOOmXRVvina1/YcF/QTpPGnzAGydemMJ6y4IKQGXbYoXM29cvvq4l0bU0LRlKIftu6zoq8FeUzwxtUjxtbnYXlm/ikim/TXxt81r+wYyvJb6eV1vh2Zp3MHN8ce5dn9t8ukX2HdK7hiEpTzh8oWiPNL5j6UmWyTwIHFeU5cXg+Ier9fHBKgCVbwdReP+GR24qXmN/PU2LB9DZf3oURee5cx4wpSTrlWLrvjqc+4jCPcya9GzJ1nznijdZKDxF6YvkUid/AY1TXzzkJd3WXBf1s39y41NA5tCjlSU3Z24o2Be4vOFPh7y0O5aMtEz2l8D4Q48WyzbPMp6ZE9eXeL2pUwGoDh3mXLV+4Q23l3zNdyw9iShzgXUd+pxOeUzhKq/WCSwzWBAID7A9LE5r4hjLtdwPXFDi1T7hu/v/FR89ZfshLcXdmN9yuWH/BhxZnGhlb6sbX+F3Dbcc8p0St7ceaVl/lBLP9mgwLzROTH2iolJTAagijv1w0GH+2TX339CRTgA35jWfSpSZFsGZjk+jfK+ArnRbgcXuthgrLGJweDK1me0ONL/1A+Z+V4nXutqzYTozJ79wSEuZv6zePJoLnFucWH2M8WvvtEYubzi0RwPPbz7e3BZT2msC3M3PZNak3s2k2kepAFSfNnf70MaF3zv0e7SLIbfiKAhvxrzB3Bswm4hzInpORTG9iNNqRmtwa8V8KU83/Lbsnlr3s9W1tm3nb3FOKOFan/coM/2QHk0McGfLOyxwB9Wz1/9a2t34CLMm/s8hLWVe80QzewQYUpxYPeA86asb3lp2/y4SpAJQnTox+0a/6KV/ffbhH5XfE8ya2g6jsHcC2IQIn+AejQEfA4xGxeD1bAFWG6wO0Ib7cmqstc+c28w1/133ofNS2eEWzmXW5CW9XsKCBdloU90/uduX0XtzHzfnhjBs0Bd555jeH22c3/p2c/8ZJbwNtNrmBlABqGKGP+PG5zY8euNP087SIz9bXUv7zpMwxuJ+UkQ0xvHRdBWDUcDQlBMmrQNYD6w3eA7jmeA8jdlqMtnVzBy/Je2AvZZbMsLIrgbqSrTGgmMX0djwQK+XkFsywsj8BOzsIuaqILbEs/7eQyqg85sbzW0updtWbfTB+ZPK4nRYCagACMBit3DtxkdvejTtIIfk9tZB9Msfi2fr8TAKj46J8BGYD/euiUZGgI8AO4JSHlp8fbuBzV1f9oIRXsBscwi+GaLncV+L+ToK0YaiXGldpqJcy7cdPl+q9bnxD8ya+PVeL6BpybGWz/4cOKV4qSrSH71g53NZw+96u4Ao13ydY58pZqjX031743dKtb40qQDIAey+gH9702M3PJJ2ksTdvKSGwQzF+w3BGYSFARCGYHYYHvUHH0LXoceXZzs0iyLzgx5lCM4unJcPdxqdODvA9kDYDb4Vt91YZg+wlbB3N3Vsq5Y9jdeVW3GUeeEZjIElWuMv/emGC3p9rnfusnEWRT+n66iTvLEX3XlXr5/A1zUp1GPAm4sb6zX9ybM1byr6zJZlSAVAXs28xUP0g9rsS7eX5TUCUlGieS3/7sbnSrS65z1bM7HXE/3Ma3mzGf9L+g/t6Wt2ehTN4JIJ9/dqdNOSYy2fWVaqKYMdrqVx4r+WYl1p0kUr8mpuE8385r35wc/Wn33NnPpzPq8PO0lGbsVRDh8r0dryTvhgrzf+uWVnmPEQ2vj3xiAL4W7uXN67aXdnTn3OnY8CxX864UEY/gVuXTW4FOtKkwqAvDbjKNy/SmHvuvqzrr67/uxPf7B+ylWlOkwrfcmMGb2a7S6ywqdKdejfjG/SOLl3p7fmLhtnRPehB2Adin4Wwl3Mb31Lr0bPnnSPOd8vcqbXYMPp3/GR0qwrPToFIHHtBvuVebi9buuIe9ra5uxNO5CkYU408swtkyziYgjvKfTvf+bzv/j2zliLuHfJQNue/SOl2aNe7R1DJ3DFCfFPac1tHWWRLySFeeork2/2KJzVq2dKzP31EIv6t1Ga6y+e9ezTJzFzZqEE60qFCoAcis0Y91jwBzIUHnxu4Q+2ph1IEjRjRuaY54/6Syf6a9zfC9QD4JbbsPB7s2MvL9f8ScNuKnLKg3Kz85jV8KvYA3/8xHCr6f8Y+KkJxKpm693DdGZP/mPskfNa3m/GTxLI9CpuvP+QJzUqYyoAUiwF4AnDHyhEmQc2PTJsKcypmhm1KtWos68ZU8DfZtjbcX8b8OqLsMzfE3suCXez+a0rKcFtdIb9ODQ2fDj2wKamjOVP/hX4XxY/lQAt3jH0jN4clbH5rXfj/p4kQv2Zx7xxYsXO85BNO4BUjAwwzbFpUQhfqz9r84vYNQvcfXEGFh+1q6N56dJbUnm4jPTccWd9duRe8m83oreBvz24H9u1l/Ca1161DxxkP4+9otyKs7BS3EPvmwP5L/RmZNQ5do6bNv4JmhjVbrsuwMfjDnSiq43C24CkL9Q7i9yKCTSetjzh9aRCBUCSMgL3GQYzArBxYO2u+rM+vcSwhXh4nFoeX/+rmzanHbKaHfWOLwyKOjomRwU73S2cDnZ6J4U3GUbPL7a2/1lz//diT/caWfibUlzO7fCPvXq8b675rxy+kkAkOYDDx5jfsoBZE/8z1sBZp631XMs3DL6ZULT9IsIVgZLdplpSOgUgaXoObLnhyzFr9Sgs33DE86u5666KvegmLcef89m6vSGMMw8T3Ox0nNOBcRzqs+qN8zc8esMvYo2Zt3yYWVgPDDikdb+xZz1bczIzx8e7ULXrufTNwFHJxJI/85K7T2X2pNWxRt3eOsiy/nuS/zm94Nvzx6T1eOwk6QiApOlY8GMdLsIdCkb9pqN3c/bVbbitcFgdeVjjka3ZWxiw5sVF/3Zoz2qvAqPO+NzhhX758RTsVIt8PM44YNzeQqEewLFi3kn9pw3R8Idij7Iwk+Q3/jh8LfbG390s13oH2viX0hDD7vQFC97Cuefmezzq8oadPq/1m2Z+XYLZAI5gSPYioOIuBlQBkHIzAGcq+FQD3Lo2WP2i3dSfdfUmnNWYrTHn9+BrMVsfLNrQWei3rhoKwrFnfmJYIdQe55n88W4cF4XoBDc/jq5b1I4P5IdZAMxLMWXKPTw8p+cf2N0Mm1WCcE8zcusdsUfd2XopxtsTyCOvx5jMxmHXAP8ea9zeITdTu+0LJHxboLl/2CuwAOgUgFSS7eDrwDa4sd6c5zHfgkcvuvmWTPAtWGYL+WgzsGXd49/dnXbgY8/8xLA8/QYHzw+2bHQ4wY80i47G/UjHjjT8aOAIup4zPxI4LN3ELzP3mesX3nhXrEHzV4w2LzxLwpOQOdZIY8P8WIO67jFfRdf/Zym97Z7l1NhPD5zf8nFzfpBQpn06vcOP5IpJ7Qmvp6R0BEAqyWCwU4FTbd8Opndd0GYOwQwIkO26O7H+rKt3A7sNb3foANtlsMPd9hLRbk4HFvY/rCd4FMx822ut3JxazAcCBKy/YV2Hud0HArUGQ90ZTOSDcRsCDO7afQ5EFkEAMPCu8FaaWU97K3i2dkHsUV6YSfIzkP6OpyfEu6gMiKz/N1wb/zQNjvL8e4APxhr1Uv5WBme/QtdjwZNSQ210IRCvVJY5FQCpZgOAAY4dvu83HPYfPnfoLhBdjNc/rH7g6w9265zv+wOviANvrRse/k7sq+vNeF/SvcbdfhD7SX93tk724LFvR5PicpjJnct/FOuhQR+b2unzW24x558TjEZkvC9UWAHQswBEpDcejD0it2QEzlsTyPIyZxfY7XGHWfDvcKh3REhRWAj/hsdsyZma/wASnZbc3S/ktj/0T3IdpaYCICKxOR5/Wl3LXkjCG1kz7mT2hHhTUs9tng6ck0gg6Y2/4M7W98YaMXP8JvPEL9I7jP7tFXWBqAqAiMS1NwzovzDuoCjwriTCHCgE/2HcMWb8nySySO+ZW+xJmIKFpC8EJHL+Kul1lJIKgIjEYvB47Cf/uZsbb0so0j5LuXTSk7FG3Nk6GbMLEsojveZTmddyfqwhXY96bksmTxeHc5NcfqmpAIhITL449pB5K/6CrtsZE+Nmd8YdY8G/QoXcDl1pzOyrcce4E/vuj3jsNHIrKmaSKBUAEYnFjdbYg6JwTvGT/Jl8/u5Yr29acizwvmTCyKHzM5i3fEq8IVG890B8BoWKeUCUCoCIxFPItMQdYpb4RXZPcdmUNbFG5Gtmo8/AshZZ4bJYAy6dsAIj3vsgpsj8nCSXX0p684tIHDs3LBoW76EtAM5bEsiyn8F/xx/jlyeRRYrHsVncvKQmzhgLnuhRAA82Ncnll5IKgIjEsRzmxJtkp6ntaOCYZOJ0CUa8D/15LW8GTkkmjRTRkQzJvCPOgOAx3wtxGRPilpJypQIgInHEPvxPYW+887jxbeSShli5ooh4h5YlNZFbvCM1ayY+Dr45oTgAtRyWGZ/g8ktGBUBEeqxXFwC6JV0AFmPW8wmG3c2dGQnmkSJyuJimxT1/fPQcC2C/TjASRDY50eWXiAqAiPRYZGF57DGQ6N6SW8wP+65bEivmVq4qMIDCoGlxBjj+eFJhACKYlOTyS0UFQER6LN9Z+H3cMQ7jksjyshBvXgLzpCckkiKLPO4EPFGiBcCdMUkuv1RUAESkpzqeX/zDF2KNaGrKACclEweATjK7m+MMsKiyZnOrBk7MWSTzPAHkk0kDoAIgItVlHa/7QOSD6HjTCUCST1BrZua03T1+dVNTBvezE8wjifDTuXXV4B6//PKGncBTyeXhOJra+iW4/JJQARCRHnFYG3tQNntcAlH2M4t5V0I4uQEYlkwaSVCW/rvPijPAINaRoZgyhM7jE1x+SagAiEiPRL0pAB5GJRBlvxB4JuaA0xKKIomzWD+7YDHfG7FFb0p2+clTARCRnupFAbBjE8jxMuMPcV4eYZr8p4+KjJNjDQge670Rm4eRiS6/BFQARKSHPHYBiCzZGQCxEGsvz42xSUWRZDkxC4BHse9YiSUk+3TLUsimHaAYDPuJm69MO4dIJTNYFHeMG0fEvGwwnkxtvMO8rul/+7B4P7so+gMUEooCkXFEvDmxy4+egy0iibFcywJI7EmA27xxYl2PX93UlLH82B0ke1eCJMg7O0bwobf0eJpfy7VsBw5LIos5d4TZE/v0A6V0CkBEktTzDXR8m2K9unBqPdr4923Z2ngX3lnM90gMbn3/FIAKgIgkKblb7pyd8V5fGJJQEimVyONtdJ0dCSUBo+fzEpQpFQARSdKgxJZsHu/DPVif/8CueiEaHuv1FrMkxhHQREAiIq8jueemxz0CYIVEzgVLCUUxTyklewSgz59OUgEQkSQlt5cUe+8u0imAvi/e+ynJIwBQm+CyS0IFQESSlFgBMKKYH+6mIwB9nYdYG10LKgCvRwVARJKU3CwA5jGf9hb0edfXeRTv/RSxN6EkAJkEl10S+gchIknqSGzJ7vGuL4ii5M4HS2mYb4/1ek9yL92Te2+XiAqAiCSp54/qjcst3od7iLnxkPLjMX+GFvM9EkuU5NGFklABEJHkuO1KbNGRxbsKO1IB6PNiHsXxmNcMxOMqACIir8k8wSMAMW8JK2RUAPq6+EdxkpyJck+Cyy4JFQARSVJyBQCPNylMpqAC0NdZeCnmgHjvkXi2JrjskqiIpwGOPPOaCwxvSDuHSEXz6O4Ni67/XcxRiZ0CAEbEevXQwzbSvrNABVy9XbWy0XMxRyRWAMxtS5IPuiyFiigAURTe525XpZ1DpJK5hS1AvAJgbErwRsARLFiQ5dxze3Y74DvHdJBrfhYs3gNlpFzsYEbDhh6/esGCLBtjlsRYvM8fAdApABHpEYORsccE1iWRpVuWTXWj4g2J4h7BkHLhPI1Zz+vk2sNHk+ROrtHjxxKXKxUAEempo+MOCObrkwhygOPjvNjg6YRySMLMPF55y3JCQlEACOZJltuSUAEQkZ4xj10AcJItACGKdTg/xN2ISNkIHru8nZhIkH08Wpvo8ktABUBEeshinwIgSrYARPj4eCOsLZkkkrgoeirWyyHmeyMuVwEQkSrh8U8BEJItAA4TYg3YM+RJKuD+7SrkdPJovAH8RVJhANjdP+4dCWVHBUBEeupowGKNqOn3R0jwgSzGabFef8UJe4DFyYSRBLVxecOf4g3xeO+NeDby0VP6/LwSKgAi0lP968/+ZLyr7meO30vcWwfjOZL5zcfHGeDOw8lEkaSY81CsAV3viaMSCdPltwkuu2RUAESkxzxkY59XNbcVSWQ5wLRYr3aPtzGR1AXzBfEGMD2hKACYqwCISJWJorgX3UEwYl28FVfkUbwP+52F3wB6NHDfUcAzj8QZEGFnJBUGIESuAiAi1cXd4l9ZHTzRIwCO/2WsAR+b2mlwX0JxpPgeZPaEWLPuuXFOQln2aU54+SWhAiAiPeaxb7sD+uWXJxDlQONpWnJsnAHB/Y6kwkhxOcyNNWBu6yiSvQWwk8xuFQARqS4G44h7J8CMKWuBFxIJtE8hc36s19e3/wLYlEwYKaId5O1/Yo2IuCChLPu0MXNagk+5LB0VABGJ47CR0z4Va2+7a/52j3UONy4jelesAeeemzdnfkJxpEgM7ubyhp3xxni890JMZvwmyeWXkgqAiMQTZSbHHeJuiRYA3M9n7q+HxBkSInQaoMzF/hndumowJHsEIMDCJJdfSioAIhKPcVbsMRl7uPhBXqE/Uf93xxoxa2Iz2OMJ5ZFDt5JVDQ/GGjFw98VA/2TidCtYvFsSy5gKgIjEYubxC8AHJ7SR8HUAZnww7hgP/o3/v707j5KrrNM4/vxuV4c1E0ByJGEZQRLAAFXdiYiAaBgFiSDgSJOqJkFklJFNGRh0PEeJOB6WEdmCbKKcmO4OzbAIEkRUhDAgEtLdCWEkYVS2BBADJjFbV93f/JEESWS71VX1VtX9fs7hHP657/uc0OQ+fe9737caWTB0brpI0yxOco25Ta5Wng0W68Rsw58CuBEFAEAyrtyOB583PNE1689xT7SXe2KuT6pn3uhE13Rm75Y0UJ1AKJvpD9rp1WRrNHoX7iTpyOoEWs+UcEfCOkcBAJBUZljL6sQbrbgp2ePc5DJyOznRFWbuEk8B6oxLl2jixGKiiwYHT5KUqU6i9WL3e6o5fq1RAAAk5nEZ6wCKxZ9ISvRINykzO0XTPNnfa5lFt6q65xUgmRc0YpsfJbpimkdmOqVKeTZarVJU7RJbUxQAAIlF5SwEnDJhqUzVXXTn2l17DRyT6JqOjpK7vl6lREjIpa9p0pi1iS4aO/9TksZUJ9HrfpH0k8R61xwFwG1V6AhAmrj0odHjv7h14utct1UjzxuZ698SX9SZu01N9ni3MfmDyme7kl5l8uT/zRNyb77to5ujAMifDZ0ASJktfastk+2+J0nmt0nyysfZxCGaOXBg0os8js+StKYKefDuFD1uOWPDgtF3r2feBKnqe/8PyopVL6+11hQFoCS7N3QGIHUiPzbxNfm2P0qaV/EsmzGLv5n4oinjnzbpkirEwbtgrqt04v6JD44yRedXI89mk9yrwoRXqj5PjTVFAXhxzlVPSvp56BxAmpjrKH1sWuJV1y7vrUaeTZgdqZ6+g5JeFq8dcaFMT1cjEt7WM7GvmZb4qq7+A+Q6qvJxNuWxz6r2HCE0RQGQJPP4TEmvhc4BpMgOO8evHJr4qmJ0k6R1FU+zGXP7duKLTt59jSvOS0q2CA1DMeiK8zrxwOVJLzTTBdUItJmVah32kxrMU3NNUwBeeOjqRbF0rKRE50YDKJ+7kr8GmJp92cxq8RfqYZrZn/y3w3z7XHf7ahXy4E246xsqtCf/OqSrb5Kk5OtQEjJTtzrGraz2PCE0TQGQpBfnXNVDC+IAABI4SURBVPVAyTMTTHarqvy9MQBJsmOU9HhgSbF0XRXC/B2L/HLNXrxF4gsL+18pKdkxtCjHvVqc/a/EV91/f8bMarJeI46j62sxTwiJ/8dtFP/4ka+MGrTiREm7SbZd6DxAs8rExYuffeiaZE/e3M1mDSySa88qxfrbVNK5KuQuTXxh1/ztzeJ5kt5X8VCQpBe8aO2amn058ZVdA18288urkGlTrse8M3dA1ecJpGkLAIA61913nskursFMf3XzfTd8gZBM94L9TaUHJPFLRGUt9yg+VJPbk5/D0LNgV/PSQknJzqMog7ufrM62m6o9TyhN9QoAQCMp/VBSLXZW28bcri3rysJ+892jY8T+AJW0zmXHlXXzl2RenK4a3PwlLVHrsO4azBMMBQBAGIUJr1iN1gJIOkLd/ckOCtqoc/8H3VSQVKpspFSK3e0kFbLlnarX01eQ7NMVzvSm3HWlOsZV/WuVkCgAAIKJLb5UNfrkzqQrNGvB+8u6OJ+73V2nVThS6rj8HHVmy/umvnfubuZ2dYUjvZUVWue1KqfBUAAAhJNvX2KuZCe/lW+4eWmm7r+/vCNjO3PXu/x08YVROWJ3O02FtvIW7vX2tlixdYZqtBbD5NN1clvT7ytDAQAQVNxavFDSYE0mcx0YLdnuwrKvL7R93+X/LNYEJLHOTQV1Zq8pd4CouNe3JP9oJUO9jeVxZth3azRXUBQAAGF1THjWZDVbbOVm56ir7/iyByi03eFmR0laUblUTWulRzpa+dzNZY/Q0/cpl/9HBTO9LXe/TB3jltVqvpAoAACCi710vmr3W7WZ2Y3q7h9X9gj57C/do4mSllYuVtN5zmM/TJNz5Z/T0tU3xtxmqGb3Kv+zWkuX1Wau8CgAAMLrbH/GzL9XwxmHm/Qz9fbvXPYInfs/7pk4K4nTSP/er1wtH9SJbY+VPULvwh3M7KeSdqhcrLfnFl2gjgl/qdV8oVEAANSFeNVWF6m2v1HvYkW7QzMGtil7hI72P/mi7CSXzhefCUpSyV3f9EXZT6iw30tljzJ78RZWXHe7pLGVi/aOFmn5YNnrFBoROwECqB89/Z831401ndP9Hm8dduyQv/nu6p9opi5JoyoTrOE872afUz77yyGN0tvbYqWxvXJ9pkK53hU3O0b57J21nDM0ngAAqB9PZW+S1FfTOc2OtNJgT9mfB27UmbvfPRpnrmuVrk8FSya73Fdv+YEh3/zdLSqOvaHWN3+535O2m7/EEwAA9WZm38EW2YOq8S8o5tYdj152kiZOLA55sJl9H7TIrpE0fujJ6pjrMY90qvK5oZc2d4t65k93eW03XHKt8pLtq6nZP9R03jpAAUBDGn3Ilw+R4oND5wgqspVLHryyVjuj1VTU3Xe5y74cYOpbPdNaqMgWsL29LSqOOdWkCyR7TwWy1ZMX3O07an3qenV0DH3tQ29vS1Qce71Ln69AtkRcfp4KbcmPJG4CFAA0pNGHnjVN7ueHzhHYkiVzrip/FXs9u2vu1raiZb5k5W3dOyQ224cPHq+jJ6yqyHC9C7dVqfiv5n6OpJ0qMmY4L7jrIq0b8QOdvHtlPtvsXTgsKq67yWX5ioyXTJ+PevWAijz1aUCsAQBQf46esMrlpyjIu3SfZCsy96t7wXsrMlzHuJXKZ7/rmVV7uOtMuT1bkXFrye1ZNz/Dt9vm/erMTa/czX/uCCsO3hPo5r/WI5ua1pu/RAEAUK8K7Q+YK9RnWQeYlR7RrMf3qdiIHQetVmduurdmxrh7h6S7VKstkMuz1qRej6JJ3vrUHsq3Xa1JYyp3cFPv3N2smJkj6bCKjZmAy7+hydknQsxdL4a26hUAqihubf2alQaPkGvPmk/u2t285Tfe3XeSCm13VGzc9esLbnHpFvXOG6lSS97cp6o+FgzGcj3uph8r09rl1doSt6t/ohV1s6SRVRn/nc3RotylgeauG6wBQENiDYCkZl4D8EZdfTkze1jSVoESuMkvijOLv1GRBW9vZcbA7mrRYZF0mJtPVO32E1hqsp/HFv9cg9EvNDX7ctVmcjf1DJxt0sUK9wvoK24t7crv91yg+esGBQANiQIgKS0FQJK6Bk4x8x8ETjHHPZ6izvZnajLbzHkfkLV8NIri/Ty2sTKNlbTrEEd9TtKT5r4gNntSkT1Ws8fg3XN3NMv8SK6jajLfm3N3P0qdbbMDZqgbvAIAUP86szdaT/8h7vpcwBQfMYsGvKfvNOXbqn964YntT0p6cpNVkL0Lt1VcHKuSv0+mkZLvGJkNl6tVpm0lSe6rY9kyuZYp8mXyaJms9Ipa4sUb97n3qoffTHffJ0x2k1yjaz31G5l0sXPzfx0FAEBDiNeM+JJt8ZespLaAMUaYW5e6+wtuLV+q+WPkjnErJc3b8I+kOt9ysHfuiKiUucRdX1D4J873xaNe/UbgDHWFrwAANIaTd1/j7idIqoez2j9lXnpCPX2nq7e3JXSYutTd32HFzJPu+qLC3/wXuUcnpPmTvzdDAQDQODrbFrvZsZIq8x360PyDuU234tgnNGv+kaHD1I3u+Xtbd//PTLpZCvvIf4MVLn1Gnfu/GjpIvaEAAGgs+ewcl05S/Tz93tvieLZ199+pWfOyocME0zt3t6i7/0ZTvEDSEaHjbLDOzY5TIbcwdJB6RAEA0HgKuV43+2roGJs52uKoL+oZ6NWsgX1Dh6mZmQO7RF39V1gxs2jDXv71srYsdtPUIZ9Q2MQoAAAaUz77XZOuCh1jM+bux1vs862rb7Z6Bv4pdKCq6Z6/d9Td/0OL/P/cdJakLUJHeiM3O1v53M2hc9SzemlqAJBYnFl0dlQcu4NLnaGzbMZkdqS5H6nu/gUu3SCPZjb8e+jr5rZqeOunTX6qFH/cwy/ue1Muna989srQOeodBQBA4+roKMW9vSdFxbHu0omh47yF/Uy6UhZfYl0Dt8WRbtaIre+t6L761dY1f3xkccGlvOS12qGwLOb6T+/MXRA6RyOgAABobOtLwOei4pjYZVNDx3kbW7p5wVwFvfbX16y7785Ydrc8uq/ungz09rZo3ZgDo8iOcuk4Kd6r5psHlcGki+LOHN/6v0sUAACNr6OjFE/zk6O9BuLAuwW+W9u5bKpJU2VxST39v7FY98ct0cOK1j28cce+mlm/R/8HJP9o5HaoF/3jiuw9jXDT38il873Ab/5JUAAANIdpFsfT/JRo7PxBl38hdJwEWuQ62E0HWxxLcSZW98BTJl8Qy+dLWqgoelpR5o8bdgIcmq7528tLeyqyvSIp566cegbaJW0vmdykOn21/1bczb7CO//kKAAAmsc0i2Ppi+rqf85M31KD3ck2iCTfx6V9TNYhSYpdigel7v4/Sb5Usj+b2SuSvyr31TJbI0mx9JKk1Yo1QqYtIvfhsmikSyPXv7v33aT4PbL1fywuNeaf0N8Mutu/qJCdETpII6IAAGg+nblve1ff78xshqQtQ8epoJGSjZQk940P6O31031ev5dv+Bc306ZH/zT23X4zKzyKTtDk/e8JHaRRsQ8AgObU2XaLKz5M0p9CR0GFmf7gcXwgN/+hoQAAaF6F9kc80iGSFoeOgor5tQ/agRuOS8YQUAAANLfJuUW+esvxJs0KHQVDY6brfUXxcE3Nvhw6SzNgDQCA5nfK3itiKa/uvjkmu1TNtS4gDZa72Smez/536CDNhCcAANKj0PZ9Nx0kXgk0kt96qTRe3PwrjgIAIF3yuT6P10wwaWboKHhbJZMu8FGvHqwp458OHaYZ8QoAQPqceODyWJqinr5Z5naNpF1DR8ImFm545P9o6CDNjCcAANIr33a3Dy/ubaaLJcWh40CDZrrYt9tmvLj5Vx1PAACk29ETVsXS19Td/1OTbpC0d+hI6WQPeKQzfHL2idBJ0oInAAAgSYXcQ77dNjmXzpVUX6fzNbcX3C3v+f0nipt/TVEAAGCjSWPWqpC71DOte5p0qaS1oSM1sZVm+rZnWvdWZ3aWzBrp8MGmQAEAgM11jFsWF3LnurWMMdP1Yn1AJQ2a6XrPtI6J87lvVuSEQ5SFAgAAbyW/33NxPneqR/ZBSXdo05N1kMwak33fPR4T53OnqmPci6EDpR2LAAHgnUzOznPpOM0a2DeK46+77Hjx9+e7tcJk18aZzPecm35d4QcYAN6tydknYqmgH889R1HLqWZ2uqQdQ8eqS6anPdYP1Np6g3eMWxY6Dv4eBQAAkpoyYamkaX7X3Eu0vPWzZpoi+WHiteo6SXd7pGt1QvY+FvbVNwoAAJTr6AmrJM1waYZ65o1W3HK8yafK1B46Wo096a4ZKtmPXj+pb3LgRHhHFAAAqIR8+xJJV7h0hbr6cpHZFDd9Wq49Q0erApf0W5ffJtft6mzjcKUGRAFAQ3LFr0bS70PnCMnNOBO9XnW29cdSv6RzNGvB+1WKD7dIR8j9MEnDQ8cr0zIz+2Ws+D612Gx15F4IHQhDY6EDAEBqXDe3VdsO+3BkfrjLPyypXdJ2oWO9haWSfuPyR+T2gFoXPa6OjlLoUKgcCgAAhNQ1fw9F3h65j3dX+4b1A7X8siCW6fdyLTBpQWy2QHHpMXW2P1PDDAiAAgAA9aZnwa7y0iSTzpO0R5VmedTlFyle+yudeODyKs2BOkYBAIB6ddfcrW1la7fcj6nksCZdGmcWfZVH+ulGAQCAejZ78Rb22l8fkdRWoRFv9ULusxUaCw0s7ZtWAEB9mzRmrcvOrdBoJS/av1doLDQ4ngAAQL1zN+sZWCJppyGO9Fsv5D5UiUhofDwBAIB6t35L3f8d8jDSogqkQZOgAABAY1g55BFMqyqQA02CAgAAQApRAAAASCEKAAAAKUQBAAAghSgAAACkEMcBp9h7Dz93m5Y1a86UW0HSGElbhs6EpuZaf8Lc/ZGiS56fc8X80IGANOMJQErt/LEzd2lZvfZRuV0oaT9x80f1maTRkjpjxXNHH3Lm50MHAtKMApBGxx/f4iXdIWlc6ChIrVaZrh916OmHhg4CpBUFIIVGv/TeEySND50DqddiHn0ndAggrSgAaRRbRY8WBYbgoF0+fPYOoUMAaUQBSKNIu4WOAGwQKRPvEjoEkEYUgDRytYaOAGxUcufnEQiAzwABoAG462pJPx3SGGZDPlEQzYMCAACNoDN3b+gIaC68AgAAIIUoAAAApBAFAACAFKIAAACQQhQAAABSiAIAAEAKUQAAAEghCgAAAClEAQAQlFnJQ2cA0ogCkEZuy0JHADaKW1r5eQQCoACkkflDoSMAGzz/4q8vfyZ0CCCNOAsghYrrousyw+JzJQ0PnQXpZm6XSeIVwAajDjnrkxbpaFNc07+bXfZqcW102cuPXvFSLedFWBSAFHr50SteGnXIWSeZea/4GUAgLp+9ZNSLV4TOUS9Gfuy0nazkd8rV6rKaz5/ZwveQ1FHziREMrwBSaulDV94euX9C0pOhsyB11pj8wtGr1h2rW24phQ5TLzLFzM6SWoMFcN8j2NwIgt/+Uuz5h6b/WtK+ow4+Y7ws2kfSVoEjoYmZKY5MS1at9YeWPTp9+QuhAwEpRwGAL/2f6XMlzQ0dBABQO7wCAAAghSgAAACkEAUAAIAUogAAAJBCFAAAAFKIAgAAQApRAAAASCEKAAAAKUQBAAAghSgAAACkEAUAAIAUogAAAJBCFAAAAFKIAgAAQApRAAAASCEKAAAAKUQBAAAghSgAAACkEAUAAIAUogAAAJBCFAAAAFKIAgAAQApRAAAASCEKAAAAKUQBAAAghSgAAACkEAUAAIAUogAAAJBCFAAAAFKIAgAAQApRAAAASCEKAAAAKUQBAAAghSgAAACkEAUAAIAUogAAAJBCFAAAAFKIAgAAQApRAAAASCEKAAAAKUQBAAAghSgAAACkEAUAAIAUogAAAJBCFAAAAFKIAgAAQApRAAAASCEKAAAAKUQBAAAghSgAAACkEAUAAIAUogAAAJBCFAAAAFKIAgAAQApRAAAASCEKAADUgUheDJsg9PyoNQoAANSBrYbrd+Z6ItD0LtnMQHMjEAsdAACw3rhx04a9tv2f94llmZpOHJdeWfrw1c/UdE4AAAAAAAAAAAAAAAAAAAAAAAAAAAAAAAAAAAAAAAAAAAAAAAAAAAAAAAAAAAAAAAAAAAAAAAAAAAAAAAAAAAAAAAAAAAAAAAAAAAAAAAAAAAAAAAAAAAAAAAAAAAAAAAAAAAAAAFAn/h/GziypYNrVkwAAAABJRU5ErkJggg==;" vertex="1" parent="1">
          <mxGeometry x="717.75" y="420" width="70" height="70" as="geometry" />
        </mxCell>
        <mxCell id="1MEsbrS8sAqf6LdHMhi8-31" value="Ad-Hoc SQL Queries" style="text;html=1;align=center;verticalAlign=middle;whiteSpace=wrap;rounded=0;fontSize=15;" vertex="1" parent="1">
          <mxGeometry x="682.75" y="490" width="147.25" height="30" as="geometry" />
        </mxCell>
        <mxCell id="1MEsbrS8sAqf6LdHMhi8-32" value="" style="shape=image;verticalLabelPosition=bottom;labelBackgroundColor=default;verticalAlign=top;aspect=fixed;imageAspect=0;image=data:image/png,iVBORw0KGgoAAAANSUhEUgAAAgAAAAIACAYAAAD0eNT6AAAABHNCSVQICAgIfAhkiAAAAAlwSFlzAAAOxAAADsQBlSsOGwAAABl0RVh0U29mdHdhcmUAd3d3Lmlua3NjYXBlLm9yZ5vuPBoAACAASURBVHic7N13lFzVlS/+7z73VnXOanUrAgYhQIhggwEFkBiCsU2U5Aw2IDDBefzGv9+z5408M/bMrLE944iNwTjxPDY2NmCTDIggiWCiEkGWDAqt7pY6VKdK9579/igJWqJbHerce25V7c9aWtjQfc7uUnWdfU/YhyCEKHqrVz95uI7hPWAsBuFYaMwGoRYAwOiDwnbS2KwVP0HE9//dwoVvWA5ZCOMS62Y2Quv3MPFZYDoB4HcAqAFQBiABRjsIrwC8Tmv3wcYzd663HHKgyHYAQohgrGJWZz7x9KVM+rMALcL4f98ZRE8Q+NuPLzz9D6uIdJBxChG0xBMtpzHUF0G4ELnBfrw2gvgHdZny22jp66mg4rNFEgAhitBDa55eTKy/B+CEfNph0IuK+VNnn3nGWkOhCRGa3sdajiCHvs2gC/NsahfAX6hf1P4bI4FFhCQAQhSR1atXu9ot/wqAfwSgDDXLDHy3viL2xVNOOSVrqE0hApV4YtrlTPgBgGpjjRL+AB27qn7x9h5jbVokCYAQReKBB16qilUO/ZaB9wTSAfEjZdCXLFq0qD+Q9oUwgBnUu2b6PxHxPwXTAV7WRO9pXNS2PZD2QyQJgBBF4J5nn62sTGYfBLAwyH4IWFPu8HkLFixIBtmPEJPVs6b1uwT6VMDdvOG7alHT6bt2BtxPoExNEQohLGFmqkhl/i8CHvwBgIFFSZ9uZ2Z5eBCR0/vE9C+FMPgDwGGOp+9rf6ClKoS+AiMJgBAF7uE1T3+BmC4OsctLVz/x1OdC7E+IMXWvmbYYxP8aYpfHV1SpH4TYn3GSxQtRwB5eu/YwaLUZQGXIXSc9readf9Zpfwu5XyHehjfNiyd6ul8CcEzYfRP4fXWL2u8Nu18TZAZAiEKmnf9E+IM/AFS4Sn/dQr9CvE1vb/enYGHwBwAGfZO5MMdSmQEQokA9smbNXGZnM+wl8j5DHXfO4tNes9S/EOB7jyrrqx3YxqDp9oLgD9Qvbr/DWv+TVJBZixAC0HCvht3fYYegr7LYvxBI1A1caHXwBwCia632P0mSAAhRoBTzh2zHACAKMYhSxvRh2yEAOHvgqakttoOYKEkAhChAj6xZM5eBWbbjAHDYg489Ncd2EKI07Vt7X2o7DgDK990oxDEhkgAIUYCY3XfbjmE/RTjNdgyiNPU/Of1oAA224wAAMBfc74EkAEIUJJ5rO4K36KNtRyBKk8+IzO8BIzqxjJckAEIUpqm2A9hPkYpMLKK0EDg67z2C7AEQQoQiMiVIGVxjOwZRmlhbqYExMjZ462BIJAEQojBF6Xc3SrGIEkKKM7ZjeAunbEcwUfKLK4QQoiARVI/tGN5EFJ1YxkkSACGEEAWJmf9qO4Y3MbbYDmGiJAEQQghRkIbKaTOASCwDEOgl2zFMlCQAQgghCtL0U9qGCHjadhwAoLR+xHYMEyUJgBBCiIKlgd/bjgHAazVntm+2HcRESQIghBCiYLmkbweQthoE00+s9j9JkgAIIYQoWDULOzoB/NReBJRgL/4je/1PniQAQgghCpqnnH8B0G+lc8LXG5a+3mul7zxJAiCEEKKgTVmwcxcRfSX8nnl9XVnbf4XfrxmSAAghhCh4tQvavkvge0LsckAp9UE6BdkQ+zRKEgAhhBAFjwicgfdRAM+F0FuWwB+oXdD2SvB9BUcSACGEEEWhedHefkfzBQCeDbCbFDN/sG5R+30B9hEKSQCEEEIUjZoz2/dkst5SEN1hvHHGTqXpnIbFu6NQeyBvkgAIIYQoKlOX7hmoX9j2AWa6OulX5F0jgEHw4P5f5dHJtWe2rTURYxRIAiCEEKIoNSxu+8l1W37yu//p/AgG/aoJfz+D8Gz/qfhfW/8bFz7z65W1S9v2BhCmNa7tAIQQQoigdHlN6V90fAK/3vMRnFG7DqfVPon5VevR6HaN+PUZjuO1oWPw/MC78GjPUnRkW/f9FztlBoJkPAG44IJPl+myxIkAz2XgaGhMBaGaCDHTfQlRqt7YvuP0w2bPsh1GJPBHP1qLTJ2mO34wYDsWEV0ZHcdjvUvwWO8SAECt24dp8TZUqCRilEVSV6Ar24SOTCt0iUyOG0kALrjsozM9rT6imM7z0bsAjIo3/yPl/sFsoichBAAMDaVshxAKXrLKRePOU0C0AOCjALwD4HcANAVAPQBCCgAy4GUrPQAJAL0A7wXoDQBbAN4Cxa8B9CrdcWu3vZ9GREmfV4s+r9Z2GFblkwDQ+Rd97L1M9Dnfx9kEKIaM8kKI/PClVzSByj4IwsXAzoUAqnDAZwuN9q0ugKbcHzoSwGlvfr3OfQ8vW/kqwE8C9CQ0r8OJszbTqlU6qJ9FiCibVAJw7sWXv5fAX2PQSaYDEkKUJl6+cgmYPgvwewGOB9TNXIDmAvgEFAEbdvbyspUPgvmPKHPuo1/dXFSbvIQ4lAklABdc9tGZvk/fAXDpIbJwIYQYN16+cjEY/wzGEoQ/i1gP4AMg+gAy2udlK58C8EdA/YF+d3NBV3kTYizjTgDOu/jyC30ftyE3xSaEEHnhSz5RD8f9DzCuQTSeKBwAC3N/9L/xsms2g/Bz+M5t9PsfdtoOTgjTxrPVkc67+PJ/BXAXZPAXQhjAy686D467GcC1iMbgPwI+Dsz/DuXt5OVX38WXrVzOF3y6zHZUQphyyBmAFStWOIlM+U0ArgkpHiFEkeNlK68F4/sonDokMTBdBMJFqEwmeNnKn4H5W3TnrW/YDkyIfBxqBoB6M+W3QQZ/IYQBDBAvu+a7AH6Ewhn8D1YH4DMg+isvX3kHr7jmLNsBCTFZo/4Snnfx5d8EcHmIsQghihQDhOUrvw3mT9mOxRAXjOVgXs7LrnkJpL+Hwcpf0H3fzbvuvBDDdT8+8wQifykpPoGZ5hK4BqBqAD0AupjxiiJ62slmH6leuqd9Im2PmACcf/HHrmTg8yaCF0IILL/6n8H4tO0wgsEngunHqEp+lS9b+Z/IqpvpnpuHbEclClfvE7MbQNnrQfgE2J8DAGDat1nmwC0zRDiPwfBiru5dM/1RQP+obmH7b4kwZn2Lty0BnH/hx+cx6HsmfgghhODlKy8D05dtxxE4xnQQ/gsx/QYvX7mKL/lEve2QRGHhTfPivWunfRmUfQPA18CYM4FvVwCfDdCvE2unbU48Me094/iGt6xatUqx0rcCqJxg3EII8Ta84qq5YPwckd3pHwDCFDD+CY67lZdd/X8kERDj0bWmdV5fT/fzYPwrgJo8m5vLhPsSa6b9rHN1c/VoX3RAArDuhW3X4c3ymUIIMXm8YoUDrX4KYOL3sBaHRoC+Csd9nZet/DJffnmpvg5iDIm1re9zQE8zMM9kuwxcEY+5T3Y9NWPmSP/9zQRgyYoV1QD/s8nOhRAlTNd9AcDptsOIgDoA/4qhsi28/OpP8pJVhXoCQgSgd+20Zcz0BwSXKB/veHpN12PT33Z96JsJQDxTdh2k0I8QwgC+9LqpAH3FdhwRMw1MP0TTzo28/OoVXErLImJEPWunnQnG7Qj+WOxhjuIHup9tqBv+LxUALFmyxAWU7PoXQpihvK8CXNp3rY5uLph+g8tWruXlKxfbDkbY0b+2ZSqY/gdAONUlCceqdMWPh/8rBQDxhtnvAXh6KEEIIYoaX7ZyJoCrbMcReYQzwHicl13ze16x8gjb4Yhw+UzfIfC0UDtlXtH7ROuK/f9XAQD7UvBHCGEI8RcBBHWdbxHiS6DxCi9b+W1eccOoO7bF5LBG3dhfNXYzM2fuzBhoBwDQvWbaYoA+aKq9CSH6Jt97VBkAqCVLlrhEPOZ5QSGEGEtuAFNX2o6jAMUBfAY68zIvX3mF7WCKCRFG3AE/IYyhOz7wAd9AOAAABdjcHzMrUTt4JQCo8obZpwKQtTohRP44/SFZ+8/LTDB+xsuueYSXXWP0SFgpWvJfL9QzcHLeDREnDIQDAEism3kUgHNNtTcZBHwKAJTPLJtQhBBmMMnTqxG8FOAXeNk1/8krrjUxhV2SsmWx5QBi+bdEf8u/jX209xFYPgHCwLzudS3zFYGPsxmIEKI48KVXNAFYYDuOYuAB6NM6tjvrfXFHOtO19+Kr/t12TIXmjG+tqwDx/zHRFgOvmmgHADToPFNt5YNYnavAaq7tQIQQRUDF3g/AsR1GodIA+n2N3VkfOzMeuj2NNDN8htOv9Zd2X3TlG3sv/MQxtuMsFKqi+iYAbyt+M6m2COtNtMOr4RJwqom28kWMBQrgGbYDEUIUhQttB1CIPAZ6fI2dWQ9dfm7QH0mKefYgsHnPJVf+IuQQC8qK3/zGWfjD9f8F0MfNtUqPmmil353xDkTkhAwBxyiAZMOOECIvufK20ZjaLBRZZnR6PnZmPSR8DT3yuH8ADdCAzx9ru+jKjr0XXyn3thzkjJs2nbyr69iHwfQ5g83uWfPJeUZmAHz4kam3w8B0F2D7F1Q4Cm5dFVRlDH4iCb8/aTsiIcRENGyfB6h8bzArCR6AhKfRr8e8rn1UaeapGcZTW5ffsO7TS676Qp+Ke+YiLBw+OY5D3MKaj2HC+wh6MUa45j5Pd4JoHOnZ2JRC1SgTPDbUuAi+BvHICKicNws1C49G/B3NULG3wvD7kxh6aTv6Hn8F3t5+K+EJISZAOe8GovPJFkUaQK+v0e9rI68UA1DpoQXfeeTHT3335Pfh2SmlV0xQQYMZAAW3rV6BzC25EHkR+jXJWBn83bpKNH1kAcrntI74352aCtQsmovq045C4uGN6HtoEziPbFkIETR9qtxtM7qk1ujyNbwAPvydbBqf/8ud2NY0C1975yVIuZFYYi4OxJue+OTx63C9ofa0TpifoJgcBiVCj8Stq0TrZ84fdfAfjmIO6t9zIqZefw7cusoQohNCTArTibZDiCKfgT2ejw4vmMF/P2bgiL078ONHfojTOrcG11GJIY2vm5r+BwBF2GaqrXwp8NZwEwBHYeo1Z8NpmNi2g/Ijp2LaF9+HimMis39CCDEc4SjbIURNihltWQ+D49ndZwh5WXzmuT/gH5/7PVzIrGmeXpk25ZVfm2ywZmFHJ4B2k21OFgMbQ00Aas86FrHp9ZP6XlVVhqnXnI36954IUtGYQhFCAGVDyRiARttxREmf1ujI+jBWPH4CmIG5Hdtw64PfxwndOyxEUCSYv2Cy/v+whh8z3+Zk8OrwRlICahbnWXOIgLpz5suSgBARUtHda/8kUURoZnR4Gt2emY1++XC8DL701G9w46Y/W46kADF+vfaGE+4LomlidVcQ7U5QirPlD4aWAJQdMdXYoC1LAkJER1kqaaDWeuHzAOz2NJIR2rDMAM54Yz1uXn0zpg0Zu8+m2G3XcXVDUI0PVuAugCz/ZdDdDUtf7w0tAYhPm9zU/2hySwJL0XDpKbIkIIRFbjJT8tvOs8xoz3jIRuiQ93CVyX588/FbceH2F22HEnVZrfHhJ1fO6w6qg+mntA0B/IOg2h8PIv0NIMTzCKqqzHyjRKhdfIwsCQhhkZP1Srr+f0ozdnsaUa/EozXjgxsfxtef/jViEZqliBAG+Monb5y/LuiOVJa+BaAr6H5G8fu6he1/AUJMADgT3K+HLAkIYVEJH/9P7yvnqyP65D+S2V07cevDskHw7fjv115/wu1h9FS7tG0vQF8Ko6+D9Gu8VSY5tAQg2x7skocsCQghwpRhRkfWj8RhO4eAckWoVgoNjkKjq9DkOGh2HUx1FaY4Co2ugwZHodZRqPKy+N/P/BbXvrwaSmYDfAZdu/b6E/4rzE7rF7XdCsKvwuyTGDc2Lmrbvv//h1YJMPW3TnDGB8UDnC3ctyQQn96Irl+ugZcYCq4vIUTJyjLQ4dkb/OMElCuFciKUEcE55CwMvf1/7/sY/tjO9Tizewd+d9hJuH/asUg6Jbefs4eAK9Zef/wfbXQ+VEYrK1P6cIDOCKG7f6tbvPuAssbhLQGkPQw8/ddQ+io/cipav/heWRIQQhjng9HhefBDnvWPE9DgKMyKOZgec9HoKFSqsQb/Q1MEHJ7swd+/shq/f+JW3LhlDRoyJXIZG/PTPrx3rrl+vpXBH8htCHQ0Lgbh+SD7YfB36xbu/vLB/z7UufLEQxtDu+nPqSqXwkFCCKMYwJ5ssGV9hyMA1Yowfd+gX+coOBTMpotqL40Pv/Ec7lh7G67fsgbVXjqQfmwjIEGEz8U6uxY9df3Jr9uOp+bM9j2+k17KREEkIh4zf7FhUftniN5emiLUkdHvT6Lrl+ugsyHtl5XCQUIIg7o9H6kQNvztH/hnxB1McR3EAxr0R1LuZ/HRN57Db9b+FBft2ggqoA2OYxhi4NuuVsesuW7+tx9dtTQyBzeaTu/uq1/QdhERfTbLMSOZV0bHtylFZzUsbv/maF8T+qNxcstu7Ln5EeihTGh9yikBIUS+BnxGfwh1/auUwsxYbuB3LR6xqM2m8A8vP4xvvnAXWlN91uLIFwNbQPxPDH3Euuvnf+7RG+dFohb/wYjAdQvbvvP3f/3Od+7tfj+yPLn9GF3ZJty8+wZc+8qPl9UuaDvkkUYr1wGntnai7Rt/RPPli1F2RHMofe4/JdC35lX03vW8XC8shBg3jxndfrCV/V0QmmIKFSE+7Y/Hu7vfwE+fuh3/eczf4eHWo22HMx5DAJ4B+BFSzoNrPznvadsBTcS25FF939/1GdzecQXOrFuNhXVrMLfyFcQoO+r39Pl1eGngJDzWuwTP9p+GLLtg6DFnOKwkAADg9w6h4/t/Rt25x6PuvBPCOUsspwSEEJOwx9OB7vivcRQalULExv43VXsZfHXjfXzhro3r/uGki/6UVU4knqAYpAmcYEUJAN3sOa+tu/HY7Sav8LWl16vH3V2X4u6uSxFXGcyKb8f0sl2ocgZRplJI63J0ZxuxMz0L7dlp0DzxCX1rCQAAsNbofWA90ju60PSRBXAqA6gWOIL9pwS6bl+H5CttofQphChMCV8jHdA6uALQ5DqoUhEd+Q9Ep/TsWPjI6h8MonxoBd1+ezTXBT5lOwDzMjqOramjsDVl9tbtSGyPT27ehd3f+BPSf9sTWp+5UwJSOEgIMbosM3r9YB52YwRMixXM4D8Mn4dUxWN86XVTbUci8hOZkW//kkDigfUI7R5NuUtACHEI3T4H8nEUJ0JrzEUsqnP+YzsJynuML7t2mu1AxORFJgEA3loS6Lx1Nfyh8M6gSuEgIcTBkpoDudq3nAitroMiuEHpGJB+kD987RTbgYjJiVQCsJ8sCQghbGIgkF3/ZYrQ4joouFn/0R2PtP97/sQnym0HIiYusiOdLAkIIWwZ8DWyhj93YgS0OE5kd/pPGtEi9Md+zqtWRXY8ESOL9F+YLAkIIcLGABKGC/44RGhx3WJ68j8Ir8DGHV+wHYWYmEgnAPvJkoAQIiyDvoZn+Nhfs6PgFu3gvw/Tv/GKq8K41U4YUjAjmywJCCHCYPrpv8FRKC/eR//hXGh1O6+4odp2IIWMCXEj7SgasxJgwSQAgCwJCCGCNaQZWYNP/xWKUOcU1Mdsvo6ATn/VdhCFjMEzjDSkdf9YX1KQ78zk5l1o/+a9SL+xN7Q+918vXL1gTmh9CiHCNWDw6Z9AaHKK4LDfhNFnecXKd9mOolAR+GQT7ehsVXEmAADg9Qyi47sPou/Rl4GwrqskoGnZu1F9htlyjEII+3yG0XP/9Q4V/7r/yBxofNt2EIXozB+/dARAJxloqv/pTx9VvAkAkFsS6Ln7OXTe+mh4SwJEaLz4VLhNsswlRDEZ1NrY9qIYAbWlNfV/sIW8/Jr32w6i0Hie+grMXI336nguRCqKd2jYSwIUd1B//omh9CWECMeA0ad/J5QLTiON+Wsczj2vRWHh9zcuJeDjRhojvDKeLyuKBAB4a0kgrFMClfNnQcVjwXckhAicx4yMoc+NGFEBXvATiBOwbOUFtoMoBIt/sOEEKL4DMFMhmjQ/MZ6vK5oEABh2SuAnj0IPZQLti8pcxA9rCrQPIUQ4kgY3/9XJ4D8MfdZ2BJHGTItu2nC5JqwFYGxA8dl5ZDxfV1QJwH7JTTvR9o0/Bl44yK2vCrR9IUQ4hgxtJHaIUFXaa/8H4XP50pXH2o4iahb9aNPshTet/+TCH278CwM/B2ByU9mrT94476/j+ULXYKeRogfTyLYnUHZEc3CdyC+6EAWPAaQMLf9XK5JF7wPRrw8/ed3CmzZ02w4kImIAWljreFDbIxj4xXi/tigTgFhzLaZcsRjxGQ2B9uP3DgbavhAieGnNYEMbh6qkbPjbnNW5tf57cxbXc9HdghRJnlKqdBOAqpMPR9MHTgeVBfujsdbI7OoJtA8hRPDShqb/ywiIyxj3Nq2pPhzX14FNda22Qyl+hP9Z88l528f75UWTrpKr0HDpKZhy+aLAB38ASL3WDr8/GXg/QohgZQwlAJXy9D+qd3e9YTuEUqB9H1+fyDcUxTs21lyL1s9egNrFx4TTIQOJBzeE05cQIlBpQ+v/5TLFPapTu8f9UCom78dP3Tj/5Yl8Q8EvAYQ15T9c32MvI/16eFcTCyGCoQF4Btb/FYC4HP8b1bzEbpT7WaQcqZ0SkL06pv73RL+pYGcAwp7y32/gyb+i557nQutPCBEcz9T6v1Ky+/8QHGYcNRDe5W2lhkHXPbly3oRPWhTkDEBYu/yHY62RuH8DEg9vDKXSoBAieJ6h32XZ/De2OX17sLFumu0wihB9b931x/9uMt9ZcAlA5fxZaPrQGVAV8dD69PuT2Hv7WqReaw+tTyFE8EzNAMjE9thkBiAI/EhttvyLk/3ugkkAyFWov/Cd4W302ye1pR17b18Dvy8Var9CiOB5htqJyfr/mFpSfbZDKCoEbHBT/rL7Pj9n0lfhFkQC4DZWofmKMxGfHWLtfc1I/HkDeh8M53IhIUT4fGMzAJIAjGVqesB2CMWD+WnXKXv/o5+f35tPM5FPAGTKXwgRFGaCiQxfJgDG1pySBMAEBv5YXc0fevCKuXmXoo1sAiBT/kKIoJkoAVywR6lCVukHe0NrCfAI/I9rr5v/HyAyMnUVyQRApvyFEGHQBiYASAoAjYvDDJc1PJKUacIIL0Lr69fccOJTuN5cs5FLAGTKXwgRFhNbAGQ4G79y38OAG95nexFoZ8LX4+17b3p01VJTe1bfFJkEQKb8hRBhUwZmAByZABi3tHJsh1AYmF5jxd/jof5bnvzCgsAunYlEAiBT/kIIG0x8ALqyBDAuWeUgKwnAoWxm4M/E+n/W3nDiU2F0aD0BkCn/Q3NqK+DUVkBVRmfajNMevMQQ/MSQJE+ioFUohQHt59eGjP/jklGxDIDHbcdhGwE+E/UR814AWzXjlTir5x69cV7oA5K1BECm/EfnVJahZsmxqHrnYXAba2yHMyq/P4nkhp1IrN4Er0uO+IjCU6EIDgj+JDNZB4QKuQZ4XKq81I61188/13Yc4i1WEgCnoQpTrzoL8RmNofX5Vi3/DZF+aq086TA0feA0qPLoPPGPxqmpQPWCOag+7Uj03vsSEqs32Q5JiAlRAOodQpc/uQ+FeodkE+AwGrniSrl/ApoBptxhS9LyUkVN6AlArLkWLTeeC6e2IrQ+vcQQun65BqmtnaH1ORk1i+ei8ZJTgEJbU3QU6i88GW5TNbp++7TtaISYkBpHIQVg0NcT+r4qRahxSnNMyzIjw4yMZngAsshdrKQPcayiwtDZdWFOqAmAirmYevWSUAf/5Ctt2Hv7WujBSZdLDkX50a1ovLgAB/9hqhfMQaa9F/1rXrUdihATMsVRUAD6x5kEVDkKU0pk6l8DSGtGmhkpzv1zMscnFfHLxoMTeQk1Aag5+zi4U2tD6atQpvwBAIrQeOmpRVFPtOF9J2PoxTfgD0R3j4UQByMATY5CBRF6fI3sKCNcjAgNjkJlEfyuHorHwBBrJP3coG/iI1QRrTXQjDAovATAUahZeHQoXRXKlP9+lcfNRKylznYYRlCZi+rT5yDx0AbboQgxYZWKUKkcZJiR4rcuC3KIUE5AvIBn6MbiMWNQMwY0j5oA5UNp/0/GGxV5CS0BKD+8GU51eeD9FMIu/4NVzJ9pOwSjKo+fKQmAKGhxIsQJQJHf8qcBDPqMfq2RCWDQ388l+I13/3x9YB2ISQktAQh6x39BTfkfJNZabzsEo4rt5xGi2GSZ0ac1Bv3cjv2gxUi9FkI3YoJCSwBURSywtgttyv9gTlXwMyNhorgDKnPBaeOlq4UQeUjp3NP+oA73KclRdEeoHYpxCS0B0OlsIO0W4pT/wXQyDaDKdhjGsKfBmfyqqwkhzEkzo8fXSIU88AO5RZQyz/lu6B2LMYWWAGTbE2YbLKJa/tk9/aEWRQqat7ffzDVrQoi8ZPYN/EkLA/9+caLO2rtv3mstADGq0BKA9LY90JksVDz/pYBCn/I/WHLzLlSddJjtMIwZ2rTTdghClDTNjF7N6JtgcaMgxBzcbjsGMbLQKlnoTBaDz2zLu53kK23Y/Y0/Fc3gDwDJl7bnLtYpBr7GwFNbbEchRMnq9zV2en4kBn+HyM82x75iOw4xslBLWSUe2AB/cHJr9aw1eu99CZ0/fiTyVf0mSmc99PzpRdthGNH32MtyMZAQFnjM6Mj66PI1LM74H6Bc4ZHpN99cJE83xSfUBMAfTGHPbY+DsxPbIOYlhtB500O5s+UReWObNvjsNvQ/UdgldFOvtaP33pdshyFEyenTjF1ZH8kI7b0hAI6vP287DjG60ItZp7d1ouOmh+D3Jcf19cnNu4puyn803X94Fr0PFOamxsFnt6Hz1tVgbX/aUYhS4SP31N/tTfZC4+CUE73SdM/P5IrQCLNyHXD69T1o+/d7UHv2sag+Y86I5+DTb+xFYvUmJNfvsBChJcxIPLAeyY07UH/+iag4djoQ5dvGGEht60Tiz+uReq3ddjRClJQUM/Z4PiZ5k3GgUUHeswAAIABJREFUFMBlij9sOw5xaFYSAADQqQx6730JvfevR9mMRrjNNVDxGLyBJDI7uotnU9wkZHb1oPMnj0KVxxCf3QSnthLkOrbDehNrDd2fQmZHl1z6I4QF/Vqj29ORe+rfr0KpPzf84SfFsbGpiFlLAN6kGekdXUjv6LIdSeToVFaerIUQb2IG9vp+6JX8JsIl8spSJE//BcB+AiCEEGJMGkCH5yMdoY1+w6l9tyWWE35Y98Ct3bbjEWOTBEAIISLOA6MjqwO5pncyFAHlRCgjevPmROetq5I/xctWXgdCJ5j2gHg3mNvBtBGKXwThBbpDEoQokARACCEiLMtAe1bD9j7/MiJUqNyfONFYFyW7YEwHeDoYJwKUOxfIBDDAy1ZuB/GLYPUYNP5Iv/+x3BZogSQAQggRUbnB37c2+LtEqFKEGqXgjjHiT9BsMM0G+CIofJOXrfwrgHtB+k+g/kfpjjsyRnsTI4rwGTMhhChdGQZ2e17ogz8BqFaEVtfBzJiDBsf44D+SowB8BqweANdt52VX/ztfcu2Rgfda4mQGQAghIibLjA7PD7Wkb27gV6gLZ8AfHaMFoC/B0f+Ll13zEIh/BErcRXfcIXeMGyYzAEIIESHevsE/rAI/CkCdIsyMuWhyLQ/+B1IAnwfG76DrNvLylVfwihXRKYhSBCQBEEKIiNCcO+rnhTT4VyrC9LiLBteBE52BfyTHgPEz6LqXePnVKxhj7UEU4yEJgBBCRAAD6PR9ZEMY/GNEaIk5mOo6hbYOPA9Mv8FlK9fyimvn2w6m0EkCIIQQEdDl+UgFvOhPBDQ6CtNjDiqogB+iCWdA6+d52dX/zhd8usx2OIVKEgAhhLCsTzMGAh78Y0SY5jiodVSxzJ+7AH0JlcmNvHzlEtvBFCJJAIQQwqI0M3q8YDe4VyvCdNdBXBXJ0H+go8B4mJevXMWrVsmYNgHyYgkhhCUaQGeAt/oRAc2ugymug0Ke8R8HBcY/YcOOP/KKqxttB1MoJAEQQghLujwNP6D6/oqAFtdBVXE+9Y+CLoCmF/iya061HUkhkARACCEsGNCMQa0DadslYJrrorzIH/tHMRvEj/Jl11xkO5CokwRACCFC5jGjO6B1/zIiTHNdxEpy7H9TJYjv5GVXf9x2IFEmCYAQQoSs22ME8ewfJ0JL9Iv6hMUB6DZedvWnbAcSVZIACCFEiAY1Y4jND/+xfYN/SS35j40A+g5ftvJztgOJIkkAhBAiJJoRyNR/jIDWmDz5j4JA+BYvX3ml7UCiRhIAIYQIScLXMD38O/t2+8stOYdEYPyIl191nu1AokQSACGECIHHQF8Au/6bXQduae72n6gYWP2WL73qRNuBRIUkAEIIEYIe33zBn0ZHlepRv8mqgVJ/5Iuumm47kCiQBEAIIQKWYRg/81+tCLWOfIRPwkzE1K94xYqSXzWRd48QQgSs1ze78h8jQpMrH995OBNc9yXbQdgm7yAhhAhQhhlDhm/6m+IqULHc6WcL46u84qozbIdhkyQAQggRoIRvduq/zlEok3V/E1xo9Uv+6EdrbQdiiyQAQggREN/w03+MCPVKPrYNegdSFf9iOwhb5J0khBAB6fPZ6M7/JkcV+7W+NtzIy1aeYDsIGyQBEEKIADCAAYMlfysVoVzq/AbBAfP3GaW3qUISACGECMCQZvgGH/8bnJI/tRYcokVYfvVy22GETRIAIYQIQL/Bc/81SpX69b7BY/oGr1gRtx1GmCQBEEIIwzwGUoY2/xGAejnzH4bZ0LUfsx1EmORdJYQQhpnc+V/tkFz0Exr6B161qmTGRdd2AADgVJXDaaiEqgxv9kWnsvB7huD3J0Pr82BuXSWc+kpQWST+GsQYOOvD70vC6x4E2HRVd1FMTJb9rZFjf2Gai407LwFwp+1AwmBv5FGE6lPfgerT56Bs9hRr+y8zu3ow+MxW9K17DTBcsGMkKh5DzVnHoPpdR8CdWrL1Jwqa3zuEwRdeR+KRTdCDadvhiIjxmZE2lCBWKEJczv2Fi/H/QRKAADttrEHzVWciPr3BRvcHiM9oQPzSU1CzeC46f/oYsm29gfVVfmQLply+GE5teWB9iOA59ZWoXXocqs+Yg67fPIWhF9+wHZKIkCGDzxG1cuzPhlP5spWn0523PGU7kKCFPrcUa6nFtM+/JxKD/3DulBq0fuZ8lB02JZD2K4+fhZbr/k4G/yKiymNovnwRahbNtR2KiJCkoad/F0CFTP/bofAR2yGEIdR3l4rH0HzVEqiqsjC7HTcVj6H5yiVwaiqMthtrqUXTxxYAcnVn8SFCwyXvQvlRLbYjERHAAFKG1v8rHXn6t4bxIV6yqug3Z4U6ItUuPRax5mivezu15ag/32xVyIYL3wUVjxltU0QHKYWGS08BZLp2XDIMDGpGr6+x19foyPpo83zsyub+7M762OtpDGmzZXTDkNEMUysAVfL0b1MzGnacYzuIoIX2DiOlULP4mLC6y0vV6UdCVZg5keBOrUXFcTOMtCWiKz6tARVHT7MdRiR5zOjTGp2ej+0ZD21ZD3s8H72+xoCvkWRGRjOynPuTZsbAvq/flfWMX6UbpLShUF1AbvyzTamiXwYILQGIH9Ec6jG/fJBSqDjGzKBdOW+mkXZE9FUeP8t2CJGhkauEt9vzsTPro3vfE/1En449Bjr3JQuFIG2o9n+lLBdGAF/EK1YUdQmG0NY44q11YXVlhNtqZqkiVmA/t5g8tyXay1th8BlI+BoDWhubCgeAXl9DAaiN+MBo7PifPP1HQR10zckAnrUdSFBC+21yKqO58W80TrWZ3fqqwH5uMXmm3jOFSDPQ4/vY6XnoMzz479fja2QjvBqgkZuxMKGsBPeTaMabS0CmXse8ES2xHUKQQpsB8FOZsLoyQg+YKfCihwrr5xaTV6pFgag7Ub0r68EPuB8GkPB9THGjOSubMfT0H1dUUjXaB3yNAea33Z3gEFBBCnUOIWZrRoTpLADfsNN58EJ7n3mdfWF1ZYS310y8ptoR0Zfd0287BCsomSoPevDfb0hzZKswm0oAykvkWnqPGW1ZH3t9PeLFST4DA1qjLWt1D8jiYt4HEFoCkNraAZ3KhtVdfjRjaPMuI00NbdpppB0RfUObdtgOoehpAJmIHg7MGjqtUArT/1lm7Pb8cSVNjNwekL1eWGnmAerg1Rxvo+MwhJYAsKcx8OSWsLrLy+Dzrxubzs229SK1pd1IWyK6vK4BJF9usx1GSfAjOgVgat262Gv/a+ROdvgTfL0GNCNhYyZAOUVb6jPUpabEwxvhJ4bC7HLCdDKDnvteNNpmzz3Pg73COMYkJoEZPXc9F8plUiK6PEPtuMU9/qMvj82cvb6FDYKMo0PuMTShJgB6KIPO2x4Dp039qpjFWmPvL9bA7xk02m5mZze6fvu0XCFbpBJ/3oihjTL9HxYnok/IJgYmF1TUOwAYuQRg8t/P6Dd41fI4e50TcoehCX2zaWZ7F9q/96DxQTZfejCNjpseRvKVYKZxB5/Zij0/ewI6UyD7IMSYWGt03/kX9N7/ku1QSoZCNKfINXKDU75i0fvRjEoZKJWcDLsyJBXvDICVyw4yu7qx6z/uRu2Zx6H69KPgNlbZCAMA4PclMfDMVvSt3gydDPbI3tD67Ui/3om6c+aj8p2HF1xtBJGjM1kk1+9E74Pr4e0tzZ3/tlQpFcknZFNjUrFP/5uo42DqtMUESAJgGmd8JB7agMRDGxBrqYPbVJ27hS+E7J4AeP1J+D2DyOzuQZibiv2+FLrv/Au6//AsymY0wqmrhCrhAjKFRCfT8HuHkGnrAWet7EguaQRCnRvNE/KmNiZGdXnDFN/Qh60PhhNeKtjAq1YpWrWq6Db5ROK6w2xHAtmOhO0wwqUZ6R1dwI4u25EIURCaXIrGB9YITI0Mxb0DwNxMScivE+H57VUAim66L5rptBBCDNPoKlRH+HpcU5OIKqI1Dkwx9dOFnia5bnXYXYYhur9RQoiSFydCa8xBbYQHf8DgwFbkSwAmXieChQSAuSbsLsMQ1Rk1IUQJcSj3NKKI4ACIEaFCEcoLZEA0NwNQ3EwslVh5S7iSAAghhBFlwwb4Yrj8hgylAIX+OozF5/xTACuvEVNRHtmSBEAIEQpC7hhfnaOK7ry7qR3pTpG9LgczUSzJTgKgkza6DZokAEKIwFUqQqOj4BbIlP5ExVVuX3o+45siFO3rA+Sm/00sAYR4/G94r5IACCHERBABDY6K/Ca+fCkA5YryqlJXSdEscmSKZ+gMoJXZI/aLMgEo7t9KIYQ1DgHT3Ojv4Del3snv56wr8vn/jLFqiRZeJ4+7w+80eKXxmymECJUDQqvrRrJuf1DKiFAzySSg3lGIFflrZaqEr4UEYIDu/knRFQECJAEQQhimALTEim+j33g0OgqVamI/eLWivGcPCkHG0EkJCwlAMDfERUDxv+uEEKFqclRJPfkPRwCmug7qHTXmeXVFuQqHU1wnlNhsYgbShuolW7gwqWgTANkEKIQwpkoRqkrgaXYs9Y5CtSL0a0aSGVmduy6YkDsxUEmEaqWK/tjffmlmI9clx8nKU+sr4XcZDkkAhBBGKOSeaEWOS4QGh9Cw7/8zLJSwjYikofX/sgkur5jBmyx0Ggr5bRVCGFGjlKUz2oWhlF+ZfI5HDldGFoYsoo3hdxoOSQCEEEbUWlicFdHngY2dACgL/y3G8DMbQu81JJIACCHyVkEkT/9iRAO+uXsSLByV3Ey//3lX2J2GxeoeALeuElWnHIHyY6YjNqUGFAsvHM568HoGkXx1Nwaf3QavayC0vo0goPL4Wag8YTbiMxuhaspB8gE8Kn8wBW93AoMbd2DoxdfBnqEtyQIAUFUqu9nEhA1qM79r5VbW//G4jU7DYiUBIKVQd/581Cw5FirEQf9AcTh1lSg7vBl15x6PgXVb0HPP8+Csbyme8Ss7vBmNK96N+LSGsb9YAABUZRyx5lpUnDAL3ntORPedzyC5eZftsIpGuY21WRF5aWZkDVUAnGh9BUOesNFpWEL/rVUxF83XLEXdufMtDv4HIqVQs2guWm88D05ltG99rDzpMLTccK4M/nlwG6sw9eqlqF16nO1QigK7ji/L/2IkfYam/wGgwk6SeTGvWBG30XEYwn1FidD04TNQMXdaqN2OV3x2E6Z8fDEoorXLy94xFc0fXQiSo1b5I6Dh/Sej6uQjbEdS8LiqqigvShH58ZkxZGr6n8hWzYQPguvu44uuqrHSe8BCHUmqTpyNypMOC7PLCSuf04rqhXNsh/E2pBSmfOgMQIqsmEOExuWnRn7WJ/LK3aztEET09GkTpX9yKmw+lDHOhkv38oobqu0FEYxQX9W68+aH2d2k1Z1zfORmAapOPQLulKJMQq1SFXFUn3WM7TAKmxuTHZXiAD6APkNP/wBQZbtaMtEi6Mz9xZYEhDbKxVrqEGutD6u7vDg1FSg7cqrtMA5QeWK0Z04KWVXEZ6UKgLmFXlEUEr6GoaP/KCeCG40TTguhs78rpj0BoSUA8cOmhNWVEWWHNdsO4QBlBfb6FZJYcy1UZdH8TgthlcdAv2/u6b8mUkdM+Tzoup9ykRR2DC0BcGsrw+rKCKe23HYIb1IxF6pCBqggObUVtkMQoih0+76xKSGHgMqILccC+DCWX/3PtoMwIbRXlv3on68fLkqFYtjXgKFa2mJkhVD/QYioSzJjyOBnVbVS0XzUZvoyL7vmA7bDyFdoCYDXMxhWV0Z4vdGJl7WG1y8nrQKjGbovZTsKIQoag9Fl+MGpJnpP//sRwLfypVcfbzuQfIT26qZfay+op9jUq7tth3CA1GvttkMoWqm/dUJnPdthCFHQun2GZ2rnH4AqRYh4galqKLqDL7y2sNa3hwktAfCH0ki+0hZWd3nJ7OxGtiNhO4wDDD67zXYIRWvw2b/ZDkGIgpbUbHTjHwDUObbP/o3LMYjrb9oOYrJCnV/pvfdFsMGzoYFgRs8fn7cdxduktrQXTAJVSLIdCQz+RZIrISbLZ8Zew3u8qhQhHu2n/+Gu42VXX2g7iMkINQHItPWg9+4XwuxywhIPb4rsdHvX/6yD3ztkO4yiwWkPe372RPSTUiEiihno9DUMlvwHUDBP/8PQj/iSTxRGoZthQt9h0ff4y+i954VIlg7pW70Zvfe9aDuMUfl9KbT/8CFk9/TZDqXg+f1JdPzoYWTbe22HIkTB2uv7SBve21VgT//7TYPj/pvtICbKyhbLxOpN6PjBg8hs77LR/dtk2xPo/PFq9NzzfCQTk+G8zj60//f96Hv05UgdVSwYmjH4zFbs/tZ9SL++x3Y0IkTMwJDW6PZ97PFyf7p9H0OaYa5qfeno9TUGDQ/+BKCh4J7+33QtL7v2NNtBTIS1+3hTWzux+7/vQ3xGIyqOnQ63qRpUFgutf8568LoGkHp1N9Lb90Z+4B9OJzPoufs5JB7agIpjZyA+qxFOTQVAhZc2h4EA+AMpZNp6kdy8A74c+SspjNy1tAnfx0gpcx98OJSbdq61c+d8wenTjF7Dm/4AoN5RUd/5fygK0P/NwAIqkBHFWgKwX2ZXNzK7um2HUZD0UAaDz/0Ng8/JLnYhRqKZscfTSI5xPM1noNvzkVKEKY4DyQNG1681ugOYfYwRUFv4t52ejmUrP4Tf3fIr24GMR8G/2kIIMRJGboPaWIP/cEOa0e75MFfMtrj0+9p4sZ/9mhwnmlX/Ju5feMkq6w/X4yEJgBCiKCV8jdQk1qgzzGjPaniSAxyg19foCmDaHwCqFaG8eKZdjkTTjitsBzEekgAIIYqODyCRx/HOLDPaPQ8Zg5XtClmX7wey5g8ALhEa3YLd+DcK+nIhzAJIAiCEKDpDBu6j9xjY7fkYKKAS5qb5DHR4PvpNH/QfptlVxTgQvQNTdlxqO4ixFOHrLoQodRNZ9z8UZmCv56Pb1yW3KyClGW1ZD8kAE6AGR6GsWE8vafq87RDGIgmAEKLomH5g7fM1dmd9ZEogC2Dk1vtzmyGDU06EusLf9T86whm87KpTbIdxKEX86gshShUH8FCZYcburIdEEc8GZDRjdza49f79XAKaY8W27j8SdZXtCA5FEgAhRNEJamhhAD2+RlvWN7bMEAWaGd2+RpvnB77xUQGY6rqB/R1FzEeifF2wJABCiKIT9LpylhkdWR+dno9sAecB+6sk7vR89AX81L9fs6sKsdb/ZNUhzu+3HcRoJAEQQhSdqpDOlA9pxq6shz2eLqgjgwxGv2bsyubuQwjroEOT46BCldqww8tsRzCaUvubEEKUgBhRaEkAAAzq3LJAZ1YHums+Xz7nNvjtzPro8nx4ISYtdYpQ45TOo/8w74/qMkDkCxUIIcRkNDoO0tqDF2KfQ6wx5AEuCNVO7o9rucAtA0hqxoDPSLKdDYx1jkJDMe/4P7RKlPFZAO6zHcjBJAEQQhQlh4CproMO3zd+LHAsHhi9PqPXB+JEqFSESiLEQ5qV8BlIMWOIGUmtQ5viH0mJD/45jHMhCYAQQoQnrgit5KA9q61d8JNhRsZn9AJQlDv/XkaEMkWIgWBiVjzLjDTnjvGlOfcnCuodhfpSH/xzzrcdwEgkARBCFLUYEVpjCh2eDnXNeySagSFmDIGxv8qOQ0AMBJcARQQHgEP0toUDRu64nt73zyxy5Yo95kjWJWhwVHEX+pkQPpZXXNlMd9y2x3Ykw0kCIIQoejEiTI856Mj6kXk63s9n5GYnGEAkh/KJIQKmKIUqGfyHI/jq3QD+ZDuQ4awnALGWOlQcOx1uYzWc6vLQ3v56IAU/MYTkK7uR2dUdUq/7EFB2WDPK57TCqa+EqoiH27+YFE578BNDSG3rQPqvneA8bpsT4VMAWmMO9ng+hiK8U7+Qufv2XcSLtb5/Xug0SAKQU3Z4M+ovPBnlR0y1FQIAoP59JyOzqxs99zyP1GvtgfdXddJhqH/vSXCn1ATelwhGHebD70si8cB69D+1pRge2koGITdAJXyNnpAK35SKOBGmxhz7T5VRRTjJdggHs/J3Vbv4GNRf/E5QRApCxGc0ouWTf4fEQxvRe/965H2P6AhIKTQuezeqzzjKeNsifE5tBRpXnIaKeTOx5xdPgNNhHjYT+apzFOJE2GvhhEAxqnEUGpWyfOAx8o6zHcDBQh+Bq087Eg2XnhKZwf9NRKg7dz7qz5sfSPONy0+Vwb8IVRw3A1OvXBK997MYU4XK7QuoCLFgULFxQJjqOmhyFGTWf0xHRK0gUKifWrHWejSuOC3MLies7rz5KDuyxWibVe86AtWnzzHapoiO8qNbUfd382yHISbBAaHFddDoOPL0OkGV+xKoSkmgxkuhPHu47SCGCzUBaHjvSdF/UiJC44XvNNecUmh4b+SWfoRhtWfPg6oqsx2GmKRahzAj7qBcHmPH5BAwxXEw1XWM1DAoKdqdZTuE4UIbjZ3KMpQfNz2s7vISn92EWEudkbbK57TAaagy0paILipzUXXCbNthiDy4ILTGHEyRgW1UtY7CDNdBtbxAk0O6NBOA8qNbo//0P0zFXDPJSvnR04y0I6KvfK78XReDakWY4bqoc2RT234VRJgRc9DoKCiZJckD2T32dpDQTgEU2lOwU29mr4ZbYD+3mDy3Xv6ui4WiXCW7GqXQ52v0a0Y06+0FK06EekfJOr8pjHrbIQwXWgJAbuE8/QMAxRwzDRXYzy0mj+KG3jMiMlwCGl2FOjD6fUaf5Yt1wlJGhDoZ+APApZkA+H3JsLoywu8bMtKO7ksZaUdEn5corPe4GD8HhHqHcjMCOjcjoCNWUtiESpUb+Mtkmj8gFKlpwtAeT9Nv7A2rKyMyr3cZaafQfm4xeZnXI3XPhwiAs29pYFZMYUqRDJQxyt3aNzOW29lfDD9ThEXqxQ1tBiDbnkC2I2Fsd32Q9GAaqa0dRtpKbt4FzvrmlhRENDFjcMN221GIkBAI1Q6h2gGyDAxqjUHNyBbIrIACUKkUqhWhXKb5wxSpNeFQg+l9YH2Y3U1a4sENxi568QdT6F/zqpG2RHQNbdiBbFuv7TCEBfufoGfEHMyIOWhwVSQH1fi+6f1W18GsuIspEY2zqHG0MsRQ7wIYemk7hjbsQOX8SB2FPEB6Wyf6175mtM3Enzeg4rgZBTH7ISbO70+i+w/P2g5DRECMCHVEqFOABpDWGikG0szIaIaN64eaHIVKpaS2QRQQDdoOYbhwpyOY0XX7OqQNTa+bltnVgz0/fdz4Na86lUXnLavhdfcbbVfY5w+msOcnj8HvNbNpVBQPBaBCKTTse+qeHXcxI+ag2XVQ7yhUKUKZIgS9OKiIZPCPjkglAKHfBqgzWXTc9DDq33cSahYfE43jgZox8Mxf0X3Xc4Hd6uZ1DaD9W/ejccVpqDxhFuTmjMKX2tKOrt88Ba9rwHYookDEiBAjYKS9YD4AzblZAg2gI+sb6bPP16hSsgcpIiL1FGjlOmDWGj33PI/+ta+i6tQjUXnsDDiNVXCqy0OLwR9Kw+8eRPLV3Rh8dhuyHYlQ+tzzs8dRNqsJVe86AmVzWuA2VEGVxwPvW+SP0x683iGkt3Vi8MXXkdrSbjskUUQcAM6wB4NyIqQMLBmnmZFilnsOomG37QCGs5IA7Od1DyLxwHokCmRzoCnpHV1I7zBzzFAIUZyqFCHlm9kz1utrtLoyC2AfReqpIQLz70IIIQ5msgpfSjMGDe9tEpOg/DbbIQwnCYAQQkSQQ4QKg9P2PZ62cgpBDOO6W2yHMJwkAEIIEVHVjrmPaA9At2dmY6GYlB761c2RKg0rCYAQQkRUpSI4BqvHDmjGYCncZhRNkasIJwmAEEJEFAGoMXyIv8vzkZUcwIbnbAdwMEkAhBAiwmqVMvpBrQF0eh5kMSBkJAmAEEKICVAE1Biu2Z/lXKEh2RQYIp//YjuEg0kCIIQQEVfrOMY/rDPM6Mh6kgSEowsnztpsO4iDSQIghBAR5xBQZ/BEwH5pBtqzHjzZExAswmpatSpyuZYkAEIIUQBqHYVYAOV8MwzszvpIyemA4DAesR3CSCQBEEKIAkAAGgOYBQAAH4x2z0evH7mH1GLAYNxjO4iRSAIghBAFokIRqgxvCByu19fY7fnIGLiESLzpObrzlp22gxiJJABCCFFAmhwFN8CL/dKasTvro9vTMHQXUWljvtN2CKORBEAIIQqIIsIUJ9ib/RhAn9bY5Xno8TV8SCYwSQwd+5XtIEYjCYAQQhSYckWBnAo4mGYg4WvszPjY42kkZWlgYhiP0x9++LrtMEbj2g5ACCHExDU4CllmDIWwe58BDGqNQZ07klhBhAqlUEYU6HJEwSO+zXYIhxKJBMBtqkassQaqKh5anzqZgdc7iGxHX2h9BoHKXMRb6+HUVIBcmdAZidYauj8Fr6MP/lDadjhCGDPFcbCbfWRDfDL3GRhgxoDOFRN2CIiBEFOEOAjlCoEcVyxAe1Dj/9p2EIdiLQGgmIOahUej+ow5iDXX2goDfs8g+p/Zir5HN4PTnrU4JqrssCmoPed4VMydLgP/eGlGalsn+h7ZhOQrbbajESJvioAWV2G3p+Fbmp73OXeMMLV/x6APlBGhwVUoL+VEgOgW+ulPU7bDOBQrCUCstR5Tr14Ct6naRvcHcBqqUH/+Cag5Yw72/OxxpP+2x3ZIh0RKoeHid6Fm0dFAKf9yTYYilB/VgvKjWjD00nZ0/epJ6EzWdlRC5MUlQqur0O75kdm1n2ZGe9ZHnaPQEMJehQhKI+N/z3YQYwn9byY+oxHTPvueSAz+wzm1FWi5/lyUH91qO5TRETDl44tRs3iuDP55qjxxNlpuOAcUD3Y3tRBhiBGhxTV/X0C+Er5Gt1eSxYVuobt/EvlpxlDfL6oijqlXLwGVRWLrwduQq9B8xZlw6itthzKi+vNOQOX8WbbDKBrx2U1oWn6a7TCyEa56AAAgAElEQVSEMCJOhNaYAwfRejjo0xrJ0ioznAHzf9oOYjxCTQBqz5kX2cF1P1UZR8N7T7Idxts4dZWoOfs422EUnapT3oGyw5tthyGEEXEiTIsHc2dAPrpLqcQw4Qd0561v2A5jPMJLAByFmjPmhNZdPqreeQScqnLbYRygZuEcqFg0Z04KXc3io22HIIQxLnIzAeUBlgyeqCwzUqVRQyCBmPqa7SDGK7QEoPyoFqjy8I755UURyo+dbjuKA1TMm2k7hKJVceyM3HZqIYqEA6DFdUIpFjReJXLb4NfoVzfvtR3EeIX27ohNtXfUbzJsHk18GyLEmutsR1G0VHkcbk2F7TCEMIqQKxY0xXUikd96xT8DsAlN6r9tBzERoSUATqE8/e+jqstsh/AmFXPlrH/AKMQiVEKEqVoRpruu9TP5Rb4LgEH4FN18c0GdKw5tVCm0Cmz+QHTqN+hMFjpbOEWKCpEeKKz3pxAT4RLQGnPQaPGooBux0wlm0ffpt7c8ajuKiQrtvZDtLKySu17E4vU6+22HULT0UCZSCZ8QQalVhBlxBzUq/DQgHrGTCQZthYr9/7aDmIzQ3gXprZ3QQ5mwussLa43ky7tsh3GAoc07bYdQtJKbd+WuPROiBDggNLkK02MOKkIalAlAZXGuYmah+CN0xw8GbAcyGaH9lbDW6Fv7aljd5WXw6W2RS1YG1m0pqLsKCgYz+h5/2XYUQoQuToSWmIPpMQfVAe8SrFEKqjhnAL5Id9z6jO0gJivUnKzvkU3wuqM9la0H0+h94CXbYbyNnxhC4qENtsMoOgNP/xWZnd22wxDCmjgRprgOZsQc1CkF08WxXRDqi3ETM+G39LtbvmM7jHyE+rfCaQ+dtzwauafr/Tjjo/O2x+D3JW2HMqLEI5sx+MLfbIdRNNLbOtF9519shyFEJMT23eA3M+5iqqtQpVTeA4QDoCWWfzsR9CIofqXtIPIV+t9Ltj2B9m/fj2x7IuyuD8nrHkT79x5Aelun7VBGx4y9v1yLxMObAFmyzsvAX7ah40cPg0vzohIhRpVbr1dodhVmxV20uAo1Sk14E1+FUpgecyNXltiA3fD8iwp13X84K7Vls3v6sPsbf0LV6Uei5vQ5iM9stBFGLpaOBAae2Yr+Na+Cs761OMaNgd4/vYCh519H7TnzUHnczMherhQ1nPWR2tKOvoc3IfW3CCd6QkQEITeQV+x7VNQA0lojw7nyvlkGsuA399C6RCgnoFqpSJUiNigBRe+lu27bYTsQE6yNHKw1BtZtwcC6LXBqy+E21sCpKQeFULqSNUP3p5DtGYDfOxR4f0HI7O7B3l+sAbkKseY6OHUVUOUx22FFks548BNJeHv6oTMFVadDiEhR2JcQHPTvmUvihvIkmC+iO2550XYgpkTi0dHvS8Hvk3PYk8GeRmZ3D7C7x3YoQogSVQKDPzLsf7Psztsetx2HSUW4N0MIIYQwQwPY6/nYneWv7L3kqoLe9X8wSQCEEEKIEaSY0Zb1MKAZDKDf15/uvOTKR23HZYokAEIIIcQwzEC376M968M76MTVoM9ntV/0iY1cBONnwf8AQgghhClJZrR5Hvr80c9aJxnzOi6+MnoV4yZIEgAhhBAlL8vAHs9HR9ZHdhx1VpKaj++8+MqC3hQoCYAQQoiSpQH0+BptWQ+DE7wUbFDz4j0XXXVXMJEFTxIAIYQQJUcD6NMau7IeEr6edHHVAdYX7b3kyq+YjC0skgAIIYQoGT4Dvb7GzoyHbk/jEEv94zbo8z93XXzNgvxbCpckAEIIIYpeRjO6fI2dWQ+9vobJW0A0QCn27t+x4vMHF0mMtEhUAhRCCCFM08wY1Ix+zchwsDeoZZhrqrK9DwJYHGhHBskMgBBCiKKhAQxqxh5PY4fno8vXgQ/++w35vKj7kmsuCKUzA2QGQAghREHzGBhijaTPSDFbuy2dAaT87C8BNFkKYUJkBkAIIUTB8DlXrKfX1+jMauzI+NiZzW3oS1oc/PdLA417Lr3yW5bDGBdJAIQQQkQC/7/27jxOrqrMG/jvOffW0l3dXb2mOyELayDsEERIN0sQZZFBQaIzMowyCoo64zabvs47me0dZnFwGwJZAEERbUIUdRAiGCAxyBKWJCRhiSFLd6eT3peqrrr3PO8f1cHsXd116557q5/v5xPB0Lnnl+6qOs899yxgaGY4zEhrxqBm9LkaXY7G7qyLnVkXO7IOdmdd9Loaw6zhGu/yD0QAYqBP8Cc/GTedZSzyCEAIIYRvUpoxzBoZDWgwXBDA7OmsfFNsAhpsGzFCLQboNgB3mM50NIEqAFQ0kvsOFptm6HS2+O3kSZVFc2WjCDSdyuZOCRFCjNsIM7qcw03IK433VEIR6mzrD8PqTF/na/98KT16z4DJXEdjtACINFah4vwTUTZnGuzaSlDU8q1tnXWge4YxvKUNQy9sRWZnt29tx0+YgsS5xyN+ciOsqgTIlicxYcBaQ/enkd7aiaGXtyH1+i4pCITIw5CrsbeA3faCTAGosxUS6qDPcUI9ItYtAAI7H8BIAUARCzXXzkXFhSeCDv6m+URFbKgpVaiaUoWqlpMxtG4bupc/X9SRAasqjrqPXYiyOccUrQ1RPKQUrOpyJM49Folzj8XItj3Y+9BaOJ39pqMJj2kAI5rhIvdcGgCIASKCRbkPfYsI/t2yhFeKGXvcUhjgP1S5ItTZCtYRh3D5y3zrrd+lxYuDM+S8H98LABWPYMqtlyF2bIPfTR8ZERJzj0N0ei12L/o13P6U503YU6rQ9NnLYVWXe35tYUbs2AZM/eKV6Fy2CiNbO03HER7Icu5gmJTO726VANhEsAFEiBBVlPsnyVM9IFc8dTmu6RieswDU2hYSasyf8nR0ux8G0Fr8VOPn7+03AfV/dlGwOv/9RBqTmPLnl4Ii3tb1qjyKxk/Pl86/BKmyKBr+/BLYtZWmo4gC9bu5g2GG8+z8gdzT6ywzUszo1xp7HRftWQfbsw46HHe0mOBJ+6RowGU4JfR3JwBVSuGYqJ1P55/D9MliZiqErwVAYu7xKDtlmp9Njlt0Zh2qWk7x9JrVV54Fu146iFJllcdQe/15pmOIAvS6Gt0eDlMzA+nRJWy7HRfbR5euDWhvDp8Ji6ESqnzKiDAtYqPWVuPtOD/A1986tTipCuNrAZB8/+l+NjdhVe87DbC8+dZYFXFUXniSJ9cSwVV26jGITq81HUNMwLDObSpTTIzcs/AuR+fWsTsuBkt8ZICRm0cRdjEiNEUsNEYsRCb2XMcG6QUex/KEbwVAdFoNIg1VfjVXEFUeRdlJTZ5cq/z0GZ4VEyLYys+cYTqCGCdG7pm/31KasddxscNx0e1qZEuwEgj7SEeMgEZbYWrEQpwKntHxR15k8ppvPVNsZr1fTXkiNsObrZyjM+WucLKIzQjXa1wAaWajna9mHp174KLTcZEugTvmfSiki/5iRJhiW5gasVHm3Sq1S/jDn6z26mJe8a0AUJUxv5ryhEp6c6yzVRGq46FFASyPXjPCP6kALU8b1owOx0VHiRQCqvC7Zt8QARWWwrSIhakRC+X5TvDLXwSWFbhjgn0rADgbrqUgPOJ4ch2dDeTyT1EEnAnXa1zklv0FTXq0ENjthPvRAAFeDJ0XVYQINZaFGREb9ZZCtKh5aV4RLz4hvu0D4HQP+dWUJ5web/K6PcOeXEcEX7Z70HQEMU7Buf8/VEpr7NJApaVQoxS8vyktvgqLkA7YOkAFIGERKpRCzN8CpdnPxvLh2whA+s0OsA7y2+1A6S3tnlwn5dF1RPB59ZoR/jnyDm7BMeBq7HQcDITo83OfhFKIBGAUwCKgQilMsS3MiNqosyy/O38AdBYHbH8o3woAncogtX6nX80VZOT3e5Dd4832riNvd8LpkjvDUqfTGQyv3246hhinCAXr7vRINANdjkan4wbu+NujIQANloKJGiBGhGpLockeHeK3FcoVGeyBuQrXfzpQ+8D7uj6t57FXwE7Aq1gGen6+zrvLaY3eX77s2fVEMPWv3Ag9nDEdQ4xTuaGzSCZqWDPasi6GQzRJMKoIjbZV1EcY++YbJFVuBv/M0cl81ZZCPEjPThhzTEfYn6+vfqezH10/ec7PJset939fxsi2PZ5ec+iVdzCw5g1PrymCI7W5DX1Pv246hpiAmKJgdRB5cBnodFx0OeE5XS9OhGm2XfDsekJu4l45KSSVQoNt4ZiIhVlRG00RCzV2bgZ/YFcgEGaajrA/3w8DGnpxK5RtofYj7wnWBjkM9D72CvqeKs4HefeKF8Cui6qLA1UAigINvfIOun68NjdGK0Kp1rLQrp3QdKb7DGiNjMOYYilYQe3w9mMTMMW2kGXGsGZkAOiD3jeKAAJBjZ64qAiwkTuB0Ro9dCnUCN7sMOcRI9/PgefexMj2vai+5pxAnA0w8vs96Pn5Os/v/A+gGT0/fQnpLR2o+eA5iEwL3J4QYhyc7iH0PvYKhtZtQ0nv5zoJRAmoty3sdcL0dD1nRDPa2EWjZSEakpGMCBGS1mjWSXeeMkkBAACZth50Ln4KVk0CZXOmwa6rgFUW9a19nXbg9Awivbndswl/+Uht2oXUpl2ITqtBfHYT7OoEKDrp3gWhxI6G2zeM9Fu7MbJ9L0LXW4gjSiiCFbGwJ6tDNckOyD0S6HBcTLGt0D3OmHSYE6Yj7M/4iIrbM4TB375pOobvMm09yLT1mI4hhBgVJ8L0iIV+1hjSjEyIHutoALsdF/W2QiJkExsnFULcdIT9GS8AhBAiKIiAJCkkVW6ffheAi9wUDwagwdAAHA04o+cIeLNnaOEYwB5HQ1u5zYNEAEkBIIQQwaeIoABEgP22bxn9l/36V2YgA0aaGWmd+6fJaSFdroYGkJQiIHgYKdMR9icFgBBCFIAIiIEQI0JS5e7ER3RupvuQZiNzCnpcDSKgSh4HBAvTgOkI+5MCQAghPEQA4qP7C9QASGnGkNYY1uxrKdDtaJANVEoREByKA7UtrBQAQghRJASgXBHKlQUXjAGX0a+1b9tGdDkaVgQoJykCAkEjUCMA8qoQQggfWMjtTX+MbSNp+Xe6396sRkb2qggGQqfpCPuTAkAIIXxkEVAzWghU+FAFaACdWTfQRx9PGsSB2hNeCgAhhDDAGt2BsMm2in5krgNgr+MWtQ2RB7ICtemNFABCCGFQXBGmRaw/bI9bJMM6N/9AGDOC06btNB1if1IACCGEYQSgxrLQGLGKuj1+j6MxEqIdDksLbaaFCwNVgUkBIIQQAVFGhKlRG7EiPRJgAHtGNwoSfuPVphMcTAoAIYQIEBtAU8RCokgTBB1m9LgyH8B3xE+bjnAwKQCEECJgCECDbaGySEXAgMsYkaWBfmJk6BnTIQ4mBYAQQgRUnW2hukh7+ne58iDAR5vp0aW7TYc4mBQAQggRYNWWKsrBPhnNGJAiwB+Mh01HOBwpAIQQIuBqLIXKIiwT7NHayGFFkw7Rj01HOByzZwEQEJvVgLI5x8CuScCqjOeO1vKBO5iG2zuE1JZ2jLzdCQ7h+lirKo6yU2cgNrMWqrIMKiJHOxwOOy7cgTSy7b0Y3rgDTlegzuMQIi91lgWXXQx7uIxPM9DrMOpsn/Ylnpxeo+VLNpoOcTjGeoyyU6ah+o/OQXRqjakIAICqy06D0zWI3l++jKFX3jGaJV9WIo7qq85C4oITQHLS17jUfOhcDL+6HT2/WAene8h0HCHGpcFWaHc0Mh4WAYNaIwmCDSkCioL5IdMRjsRIAVB9xZlIfuAM3+72x2LXVaD+zy5C7Pgp6P7pi/DtqK4JiDRVY8qn58OuTZiOEk5EKD97FmKzm7D3vmeQfitw83KEOCICocFSaNfe7e3PAHpdRn2RdyKcpFKw9FLTIY7E99vHqstOQ/KKMwPT+e+vsuVk1F4713SMI7KS5Zjymcuk8/eAVR5Dwy3zEZ1ZZzqKEOMSIUKd7e1H96Cr4QT3vie8mO+l1nv3mI5xJL4WALEZdaj54Dl+NjlulRefgrI5x5iOcVj1NzbDTpabjlEyVMRG/Y3N8hhFhE5CKVR6/LrtlxUBXnNh4Q7TIY7G10++5NVnIwyPmYJYpJSdMg3xExtNxyg5kYYqJC44wXQMIcatxlKwPPxAHdSyRbDHllPrsrdMhzga3woAq7IMZbOn+tVcQSLTqhGdZnZy4sESc48zHaFkVcw93nQEIcZNEVDr4aMAjVwRIDyRAaxvmA4xFt8KgPiJTaG4+98nPrvJdIQDxE8KVp5SEju2ARQt5hlsQhRHQhHiHm4XPOjKRABPEH2Llt/9pukYY/FvBKC6zK+mPGEF6Fk7KQWrMlzfv1AhwE7KxEoRTnUe7hKYYTkjwAOdIPp/pkPkw7cCgIq0n3WxBCqvRaEaPQmlIh26IkSxRYhQ4eHrdyjAy6BDgfDX1Lq4z3SMfPjWy7l9Kb+a8oTbH5y8nHWhhzOmY5S0IP28hRgvL88KGJJ5ABNHWEEPL73fdIx8+VYApH/f6VdTnkhvDVbekW2BXUoaetmOXuiUFFgivCJEKPdoWaDLQFoeA4wfoQ1u5hbTMcbDtwLA2TuAzK4ev5oriNM3HLgOd+iVbaYjlKywbAEtvKUZyHLuVLyMZqQ492uEOZQH5FR7uJNfSh4DjJeGi0/Sivu7TAcZD1+3Au791auY8qlL/WxyQvofXx+47YCH1m1D8rLTEWlKmo5SUtyhNAae2WI6hiiSLDMyzMgy4Oz3Tw2M2cVHiFBhEaoUgUIwCSdKhCgRMh7cvac0o0YWxuSP+G9pxbKVpmOMl68z3VIbd2LguWCvjEhtacfA8wHcu0Ez9j64BpxxTScpHczoXv4CdFqG/0uBZmBYM3pcF+2Oi3eyDnZlXexxNHpdjUG97+5+7M4fyBUPPY7GrowbmpnxFR6NAmSYZWvgfDHupYeX/ZfpGBPh+1T3nkdewPCGHX43m5eRrZ3Y+/1nA3f3v09mZzf2/mC1FAFe0IzuFS9iWIb/Qy3DjF5Xoz3rYHvWQafjos9ljGiGV322A6DDcZEKQRGQUN6NVYzIZMA80G9Qrz5jOsVE+V4AsKOx596n0fvLl8Ejjt/NHxZnXfQ9uREdi34d+LvB4Q070PHdxzHyzl7TUUIru7sfnXc/hYHVMvQfRhkGelwXOzMO2rIuel2NkSL3zczAHkfDCfjcAAuEuEcHrclEwDH9FvHhD9PixVnTQSbKyHHAYKDvyY0YeO4tJM45FmWnHgO7pgJWZdy3CO5QGm7PMFJb2jC0bhvcvmHf2i5UZlc3Or7zOMpmN6H8rJmITq+DVVUGsuWh3eGw60IPjCDT1oPhDTuQ2rATLHc3obJvm9oBl5E11DFpZvQ4jAY72PMByi1CyoPx+2IXVaHGvBoOX03LfzhgOkohzBQAo/TQCAZWb5E7sYlgRmpLO1Jb2k0nEaJosszodxmDrD0b0i/EkNaoYYUg1wBejQBkmMHgUEyA9BXhKZRnrqUHHhgyHaVQAdruTgghckYY6HQ0dmVdDOhgdP77BH0uQITIswIlG+y/qgkPgiqvKYXOHzA8AiCEEPvLPd/XSAX4EU1Wa0AF+3FbnAiDHhQqGWZEPRpRCDkXRP+HHl7y76aDeEkKACGEcQ6AXsfFYEBX4OwvDGtw4oo8+V7KCAAAoBOkb6KH73nCdBCvSQEghDCGAQxojV5HI7j3/AdSIbgjjniUUfYCoFYo5/PUem+wtob1iBQAQggj0szoctzQ3WVGgt//I+LRxD0n4PMdioaxF8AX6JElPzYdpZikABBC+IoZ6NUafW5Y7vkPVE7BnzutKHeKuFtg/z0JC4AsgHthud8o1bv+/UkBIITwTYYZexxtbC1/oco8nGFfbDao4EONwlmiTQgD9DBc+hr9dPHbpsP4RQoAIYQvBjSj2wnjOXs5BKA2RJtt2UQFn2HAyBUBwR/zmLA0QK3Q+j9oxdINpsP4TQoAIURRMQNdbjhm+B9Nva1C8fx/H0XefL81cygmPo7TFgDLEIsspQcXheOc+iKQAkAIUTQOA52Og0yI+34FoMG2UKbC1Ql6lTbEP7qD0OsgbgXh59S69CXTaYJACgAhRFFkNGO3qwueiGaKRUBCKSSVgken7PpKgeBF9x3SH98IGOug8DswrYXjrKWf3RvMY2gNkgJACOG5lGbscdxATiIjyi2Ti1Cuk1Sjv6cod9dsITfRL+w74Hm1hz+H4SwAwnfB/BKI3oFjb0Nv005atTAYx80GmBQAQghPDY92/kG4c1TI7YoXJ0KUCLaiSfSh59VPgJHh3OMchxkOchMDmRmaR/+dct9rC0CZUignnzdM0uilR5Z9378GS8PkeS8IIYpuSGvsdbTRzr9MEcpIIU5ANGTP7b3k1ehLezaPzY/3+4EPaRcKQNK2kPTr+0/0Rf74bXdM5gl9E1HCqzuEEH7K3fmb6fwjBNRYCjOiFhptC1UWTerOHzD77F4D6HFc7PbtMRBXIZ35rC9NlRApAIQQBUtxbtjfTwSgUilMi1g4JmIjaSlYYXhe7RMdgM2WUpqx16/XBdFnecGC8GzUEADmHwEQEJ1Rh0htBSge9a1ZHnHg9Awis70LbODoUYpYiM2sg1WdAEXM/xjE2Nhx4fYPY+SdveARmV/0rr7B8k4fn/kTAZWkkLQIVsgn6hVTUA7yGdaMAc2oLP6IzExw8hoAPyt2Q6XCWM+j4lFUXTYHFRecBKsibioG9HAGgy9tRd8T66GHRorenlWTQPWVZ6L8rJlQ0UjR2xPeY0cjtWkXeh97FdmOXtNxjFODQ+V+3GwSgCpLoSqky/L85gRiGmZOr+uiQtnFH59hfApSAOTNSAEQO7YBDZ+8GFZVmYnmD6DKo6i66BRUnHc89j6wGqnNbUVrKzH3ONR99AJQREapwoxshfIzZqD8tOnofewV9D250XSkkhdXhDrLCtVOfCY54MCMAAC5Q4nSmv3YTOlKXvCpWmpd1l3shkqB73MAYsc1oPG2ywPR+e9PlUUx5dPzUX76jKJcv2LeSai/sVk6/1KiCNUfPAc1f3Su6SQlywKh3lJosqXzz4cLoMvV2JXxdz5GPtL+PGqNwKXr/GioFPhaAKhEDA03XxLcTlAR6v50Huz6Sk8vG5tVj9rr3+PpNUVwVM0/FeVnzzIdo+QkFOGYiIUKS+Yqj0Uzo8fV2JlxMeCaXYZ5JK5f8zUUX+tPQ+Hn6zur+oozjT7vz4eKRlB99dmeXrPmQ3NBSj7ESlnth+ZCyWROTxABtbZCg21hkq/ky8uQZuzKuuhzNTiQXf8ov1YlML2Pr/qLmD+NhZtvvZKK2Kh4zwl+NVeQxFmzPHtEEZ1ei9ixDZ5cSwSXlSxH/NRppmOEXoQIUy0LVVIwjynLjN1ZF3scF8Eb8D+Uj+O+CSRSF/rXXHj59i6LnTAFFAvJHRIBZXO8+TAvO/UYT64jgk9+1oWJE2GqbU36DXzy0a812hwXqQCs9c9X3N+i7iI/Gwsr33rkSEOVX015wq7zZh5ApD5cf28xcfKznrhyRWiwlWzjMwYXjL2ORkqHp+MHcpM5434Wdozz/WssvHwrAFQ8XGveVcKbR0hUFq6/t5g4Ve7fRlalpMLKLfGTzv/oUpzbVS+MxytXW74Xd1IA5MG3MRlnKO1XU57QA97k1YPF31xIBIMeDNdrPAiSFqFeOv8xDWiN3dlwdv5lRKj0f+emKbzgZpl8NQbfCoBsR59fTXki49EOb9ndslPcZJFpl5/1eFQoQo0V0CXBAcEAuhyNLsf/7cq9UEaEBmPLviMnG2o4NHwrAEa27fFlq10vsKOR9mhHwOH1O/xb/iKMGt6403SE0ChXhDpbOv+j0aOz/AcMnFVSKIXc6YyNEcvciXOulgJgDP79bDSj/+lNvjVXiIHfboFOZz25ltM1iNR66RhKXaatB+k32k3HCIW4TPgbk8tAh6ORDvjNgwJgESFCuUl+CUuh3laYHrGQNL+B03TTAYLO13V5A09vRmLucYg0Jv1sdlzc3mH0r/R2b/fun7+EqSc1QpXJJLFSxFqj++HnzR7AHhI2AQ3yzP+oXDA6HI1sADp/AhAlQoRyezTs+2VRGM6S5ymmEwSdrz9DnXXQufQ3cPtTfjabN53OoPOeVXA9nrDodA1i7wOrwdkwbNchxoWBnodfwMi2PaaThEK9ZclJfkfhAOjImu38YwQkR4fvZ0RtTI1YqLdzd/TlKlcMBL/zB0BoNB0h6Hz/OTpdg2i/4zGMvLPX76aPKtvRi/Zv/QqZncU5RCq1uQ2771wJt2eoKNcX/nOHR9B5zyoMPPem6SihUGMpf9eCh4wGsDvrGun8I5Rbqjc9YmNqxEaNpVBGFI6O/oiownSCoDOyNZ/bN4yO7zyO8rNmouLCExE/odHMXvmcm5w4+PzbGHphK7jIk21G3tmLXbc/isp5s5GYexyi02uL2p4oDqezH0Mvb0P/05uh0xnTcUKhTKkgPBMOLIb/nT8BSCiFSkWIlWZhJucBjMHc3rzMGH7lHQy/8g4oZsOuTkBVxEF+jA8y4A6k4PYOezbZL++msy76n96E/qc3QZVHYScTUJXyOg0DPZSB2zcMV9b7j4sCUC/j/ke1x9EY8anzJwAVSiFpK4MdQPFtrag/p3nR+pWmcxyCoAHqY6CHNL9FijZz1n5pzV+c4s3Ss3EIxM+fRxxkd/cBu8O1V0Ch9HAGmeEMIJPHRQmrthQsv46CDaFuV2PYp6V+VRYhaSlMhmmY/ZFYEsDlpnMcgnP/QwBAADMDdhbNi9ZvBujXWvOP1n7u9LUgKnpFKGNyQoiiiRJQKUP/RzSkGf1u8Tv/uCJMi1iotaxJ0fkDwLAVulVXpwD8BaWwpvmuDW8037nhS3PvfrG8mA3KO1MIUTS1suTviDKje/sXkwJQbys02Raik2wUJmWH+hyWE0F8R1zHtkgHb2QAABsISURBVM2767WvzL37xaL8ZaQAEEIURUL5fAJciGgGOrO6qFtH5O76bVSYmGAdAMMqdCMAh9NATN+M69i6ixZtaPb64pPzlSGEKLrkJO148tHtunCK2P1XWQqNtgV7EtdfIR8BONjpGvx0y50bvoGF7NkbS96hQgjPlStCVO7+DyulGYO6OJ2/AtBoW6j1//jdwOmMldw2ABYT/3Nz48ZfXPo/Gz35y0kBIITwnKz5PzwNoMstznN/BaAxYqFMCi8AwI7yatMRioSvcpR+8tK7t9QXeiV5lwohPBVXhNgkm3CWr27XhVOEm3+bCFMjlnzf97MjUWM6QtEwcL6jM0+13PlaQX9JKQCEEJ6arJPOxjKiGYOu971/hICpEYWIdP7vconQHq8yHaOoGDiDiR656jtvTngnOXmnCiE8Q5R7/i8O1V2E9f4WcsP+stjyQO1lSWSVZTqGHy4diKTvmOgflgJACOGZBCn5UDmMQe39Vr+5Z/42bOn8D7ExOdV0BN8wcFvLna8tmMiflfeqEMIzFbLn/yEYQK/Hd/8EQmPEQlS+3Ye1ruYY0xF8xUSLzv/eprrx/jkpAIQQnrAAxOU59CEGXe35xL9aSyZaHs3LNdNNR/BbXdTK/tt4/5AUAEIIT8Rl8t8hGECfxxP/EkrJ+QpH0RmvRFtZ0nQM3zHoU83f23jaeP6MvIqEEJ6Iy6fJIQa19nTHvwgBddL5H9WLtZPu7n8fBYu/Pr4/IIQQHpANaA7V7/Hdf4NlQb7NR/dU48mmIxjEH5v3vddn5fvVdjGjjAfZCqoiDvJh6Qazhh5Mg7PFPYnLT1YiDoqV1N7XnmEnC3dgBPB4Frb4A5tIZqMfJMWMrIevuSqlZHvlMfRH4u6LNdO3A0U9Z6kQEQBTAEx47f4YLKX0TQD+JZ8vNloARGfWoeKCE1E25xjYyaIee3xY7kAK6S0dGHz+LaTf2u17+4WgmI3KebNRfsYMRKfXgWwZzDka1hrZjj6k1u/AwJo34A6mTUcqKTHplw4x4OHMf4uAanmPj6nKSd/59OfP/kvTOcby3iWvTrcc6yoC3wLgPV5em4FgFwAUs1H30QuQOHtWbucQQ6zKMiTOOw6J845DatMu7H3wt9BDI8by5Kv87Fmo+8j5UIliFZGlh5RCdFoNotNqUDl/Dvp++Sr6n91sOlbJkF3oDuSCkfLwwJ9ay5Lntflg9UPTEfLxu1vO2glgCZiXtixa/ydMdBeASk8uTjz74rteP+mZz5765lhf6vtrykrEMfWLVyJxzrFGO/+Dlc05BtO+cjXsumCfIJWcfxoabmqRzr8AKhpBzXXnoe6G95qOUjIiwXkrB8Kgy56NQceIkJCh/3xsxPLFz5sOMS5EvPpzZz6oFTcD2OvVZV12Lsvn63wtAEgpNNx8MSJNwTylyapJYMqnLgXFAjM14gDlZ81E9TVnB6pwCrOKeSehav6ppmOUBBkBONCQh3f/crJi3m6n4D77P6q1nzlzvWK+AYA3E9OIWvL5Ml9fWYkLTkDs+Cl+NjlukaZqVF0avE5BRSOove586fw9Vn3lWbBrEqZjhBpzbhKgyHGYkfFo8l9UzlbI13bUqR+bDlGIZz935tMA7vXkYow5+XyZfwUAEarfd7pvzRWi6pI5UJFgjQIkLjgBVlXcdIySQxELlZfm9V4RRxKzs3KP+gdy928A07/T4sVZ0zEK5cL5V3gzijEbzGNWjr69umLTa2GF5E5LxSOIzW4yHeMA5WfMNB2hZCXOmCkjK4Ww7NJZT+uBYY/u/m3K7fonxtQBq8KbO2fDnrvtnG0MvOzBpSrf+923xpxU6NurK3JMrV9NeSI6PVh5ozNqTEcoWVZ1OVR51HSM0GJbCoB9NIARj0YAKqTzzw/h69R6R8p0DK8QsM6L66jIUHAKAKsyXMPXdmWZ6QjvoqgFFZVNforJrvJ/H4qSEbWkABiV9nD4X2b+5+UFnD79+6ZDeIvaPbmMUsEpAPRIuB7PuCMZ0xHexVkXrL09TlQcyE0H5+cdNhyJSAEwKs3evE9jRLKyYmwair9ACxeW1IcjMTz5MCLNY05k860AcLuH/GrKE25XgPIy4PYGKE+JYUdDD5TMCKLvyJIRgH3SHnVFCUs6/zzcTa3LwrXuP2B8KwDSb3SEau/91JY20xEOkHo9WHlKSfqNdrBTUjcRvnJlDgCA3NRtr5b/lZE8/x/DVij1NdMhws6/RwCZLIZf3e5XcwVJv9EBp2vQdIwDDD7/thxmUySDv3vLdIRQc2LRcD3fK5KsR8//LcjOimPIgnEjtS7uMx0k7HwtM3t/9Qp4xPGzyXFjrdHzC08mYXoqs7MbQy/93nSMkjOytRPDG3aajhFqTlRGAAAg41F9Lscqj4HxN/TI0udMxygFvhYATvcQ9vxoTaDvZHtWvIjMzm7TMQ6r++EXkG3rNR2jZLh9w9jzwOpAvx7DQMdiMgIAIANvHiPFZfnf0fwvHln6bdMhSoXvr7TUazuw5/5nAzcSwFqjZ8WLGFjzhukoR6QzWey+c2Xoji4OouyefnQs+jXcvmHTUUIvE4sF681sSHbsjdfyEpUBgCNZD9e5Maz7/QeRkf1uh1/djrYdPaj+4JkoP2sWyGTFy8Dw6zvR+8uXke0I/iMld3gEnXc9icQFJ6D6/WfASsr69fHQwxn0r9qE/mdeB2dk5NoL6WRFGrlDTCzTWUxyPBpJkuf/h7UTjvtB+tl9MgTqIWMb3jvdA9j7wBqo5S8gPnsq7NoKWD7uxqZHsnC6h5De0g53MO1bu15grTH42zcxuPZNxGY1IDq9FlZlHCT7hh8Wa4YeHEG2vRfpt3fLngoecy1bA9gJYJbpLCa5HhQANhEIUgHsb0TZw39/5jU/Xls38+MtV3z5gP/GIE3gPig14DK6Gdktz+0+ezsWUkm9yWOUxsz4dhwT24W4SiGuUkjrMvQ4Ndg1MgNtmWnQPP7Pf+Mn3ujhDIZfecd0jHBiYGTbHoxs22M6iZjsCG+DJ28BwAxPZgDIfp8HSlkRfOnc68s3Jpu+eqSvYRDAPPo820Zz44YUFq1/gYDfaOLHf/uZM54DUegeG9TYPbik+ik0J9dgdtlm2HTkJ20DbiVeGzwbT/ddiuf7L0CW83slGS8AhBAlQGMrCJeZjmGKV5MgZPe/P+iPxPE3Z1+LjclxH8xWBuBiBi4mpn9ovmvDVlq0/gFbq7tWff60jiJE9dRJ5ZuTV9Q+hvfVrESE8ptfW2kNoDn5LJqTz6I7W4fle2/Ac33NY1YB9IEP3RS6ykiIye7aa96POaecZDrGPg9d9u1l68H4V9NBTBnRjHan8Dkl1ZZCtTzKQ3tZJb56znXYXu7pIWhpEC/TrP9t7W1n7/Lywl5gBvWumfollyO325Qt+Hl4Rke3xZH906qL29Yc6WvklSaEKJzmV01HMMmruyjZAgDYWlGHz533Ma87fwCIg+nzCtameXe99pVLF/4mMCPgXc/VVvWumfZzAv7bi84fAKIqc6xWvKp3ddNfH+lrpAAQQhSOs89hEi/P8mgF4KSf/vfrxtn47HkfxZ5YopjNVBLTN7ON9b9tufO144vZUD4GnmlqsJzYKgJ/sAiXtwH6j57VTd9hPvTlJQWAEKJgtOL+LgBvms5hCnu0BFBN0hIgo2x8e/YlWHjGVRi2fVsN9h4QrWu+c+O1fjV4sD2r6ytdRY8BOKeY7RDoL/p+2/RvB/++FABCCK+sNR0g7CbjB/I7iRrccv7H0DrzbN/bZiAJ0o+03Pnarb43DiCCyH0A5vrSGNPf9j079ab9f2syvt6EEMVAPGkLAK/u3CfTTkpZZeH7x52PT53/cbxdUW8yisVEdzcveu3LY3+pd3rXTL0FwPV+tsmEO3vWTH13ua4UAEIIbxA9YTqCKVEPZu8RAfYkmQX4Yu0M3Pzej2PJCRcibQVlLh59s2XR+pvG/rrC9f9mWj0Yt/vR1kEqCPjWvv8jBYAQwhPUuvT3AF4zncMEBSBeYOddRlTyH8jby2vwtbOuwZfOvR7bErWm4xyMGFjWcvfGlmI3pCP8VQBmvgGMD/etaXoPIAWAEMJLhBWmI5iSLPBMk6oSPgXwrcoG/MtpH8CfXngTnm04wXSco4mw1g+e/71NdcVqoO3FaeUA3Vas6+eDWf0VIDsBCiG85OoVUOofTMcwoUwREoowpMe/IqBCqYJHEIJGg7CudjoePHYunq8N1S7RM6JW9i4AC4px8UQaH2ZwshjXzh9f2/vszJrSLTmFEL6jFfe8CuBt0zlMqbcsxMa5nW+cCHUltPvf2xV1WHRiM25ouRlfOvf6sHX+AAAG3dB812tXF+fa+FAxrjtOcZDzARkBEEJ4jO8H6B9NpzCBCGiKKHQ5GoN5jARUWoRaywr16v+ssrAx2YR1NdPx9JST8HZF0UbP/aXVHZcu/M0TqxbO9+qoh1F8ibfXmyi+VAoAIYS32FoC0t/AJD3cjkCoty1UMqPf1UhpPuCkQEVAuVKoUoRoyA7/cYnQHk9iZ3kSm6sa8XLNdGyonoYRVYILGIlnZxvrPgbgh15dcmBN4xSX0ejV9QpBwOlSAAghPEWPLG7nj9zyU4CL8gw1LGJEaLBzHaMLwGWGRUCQ7/ezysJjU+dgIBJHWtlIWREM21F0R8uxPVGD9ngVsqXY2R8RfR3MD3p1nLBmGN96eB8NOkEKACGE99hdBFKTugDYnwXACsHd/uNTT8F/zHmf6RhBcmrL4tebVwOrPbmaUskDhoMMInDSRu4oaykEhBDeeeSeVfjIpzcCOM10FJE3vbO89gZi3m46SL5csiyLuFFDn0Sga8C4BB4vb9fMN8GrAoDZDtCRT1EboCEYX5IghCgllDsf559BeMh0FpEvWn7b7Z8I8z4O/91y14azmPlbAC716qLEfD0W8m1YSAXfu2uNoQANBA0ogPtNpxBClKBHlv4EwCumY4g8Kf530xEKtfqzp786rW7T5QDf4eFl61uaNp7hxYUsWG1eXMcjuxRAu0ynEEKUHgIY4P9rOofIyy+odelLpkN4ofWjH3XX3HbmVwC6z7ur8qVeXKXS2bUVwIgX1/LAFgXSW0ynEEKUJlq+7OcAnjOdQxxVBkr/lekQXovEE7cB8GQ+g2ac6cV1aD4cAl7w4lqFYmCNglYbTQcRQpQwpf4agCfLqERRfJta7ym5G8FVNx+XBuGfvLgWASd7cZ0cDsSpmRr8hNLsPms6iBCidFHr4tUALzWdQxwGYTeU+lfTMYolTSMPA8gUfiU+rvBrjF6J9IMwXxC/WtfSsVE5A7teBCATAYUQxROL/i2ADtMxxEGY/5ZaF/eZjlEsL33mvD4wv1zwhZg8WylX3dz5NhimRwEWAYBatWqVA+Axw2GEECWMHlzUA6Ivm84hDvA4li+733SIoiPaWfg1UL7gJz/xbAtETfQvXl1rArYn+xP3Afs2TFD0A4NhhBCTAD285CEQP2o6hwAAdCKLT5D5oeiiI/JkhJt27pwe9eA6AIDalrbVIPzIq+uNC+ErdPVbI8BoAZDp2f4rgIK0PlEIUYqi0U8CvM10jEmP6RZ6dOlu0zEmMwv6SwT2ud+ln1Q3ty/f9/8UAKxatcphxjf9DSKEmGzowUU9UPgYPJmYJSZoET2yREZiDKts3t3pgv4YPu0LwMDrrp2+Zf/fe3fPZErz3QTs9SOIEGLyotZlzwP8d6ZzTFIvQlV+1XQIkVPb0v4sCDcClC1yU+9ol66su6D7gMch7xYATzzxwJAGfaPIIYQQAli+7FsgPGw6xiSzE1n9IWq9I2U6iPiD6ub25QT9YQBDxWmB1jvKaq67pG3Hwf/lgFOTms85fglAsmuXEKKoCGBQ340AnjSdZZJIgel6evQemesVQMmWjv+1LLwHoPVeXpdA96WH3Avr5+087Jb/BxQACxcu1K7CJwAMeBlCCCEORq2tGSj1EQCvmc5S4jTAH6dHlgRiC1pxeJUXtm9K1tScB9DXUOjePIxNILoi2dJ2c9MVu484snDIuclPrrj/DSb+TEGNCyFEHqh1cR8c9xoAha/VFoejQfwZWr7sp6aDiLHRaRsz1S1tt3M2Nmu0EBjPFs0ugJVg/miypf306ua2MTcbsg/3myt/+oMfvf/am+YSQSaLCCGKin527w5ecPMVYGslGNNM5ykhGoxbafmyZaaDiPGpmb+tF8DtAG7vWt10mk3qMmY+k4CTGagCqALgXgB7CNgMot8puE9VNu/uHE87hy0AAGDlow/89fs/dNMUAm4q8O8ihBBHRa33vs4f/mwzLOfXAE4wnacEMECfp0eWSOcfcnUtHRsBFOXQvkMeAeyHq6Ppm8FYXIyGhRBif/TTu7aBcSmAzaazhJwD8M20fMldpoOIYDtaAYDW1lb3iUcf+Cwx/zMmwZaRQgiz6JGlO6HtSwCsM50lpHqhcTUtX/Z900FE8B21ABjFjz/6g/9LoA8AkK0jhRBFRSvu6kSl0wzwfaazhMxWKLeZVixdaTqICId8CgAAwOM/u//XzNlzidBazEBCCEH33Zem5ctuBuirABzTeQKP8TR05nxqvfd101FEeORdAADAykcfanv8pw98FMwfAPBSkTIJIQQAgJYv+W9oXAFgj+ksAeUA9E/onn45rbi/y3QYES7jKgD2eeLRH6x84mcPnEfMVwH8BHLrD4UQwnO0YulT0PbpAC8f+6snE94GwmW0fMk/0KqFMkoixm1CBcA+jz/6g1898bMfXMGcnUmEvxotBoY9yiaEEABy8wJo+bIbAHwcgNzpMu5Fls+kh5c+azqKCK8j7gMwHisffagNwDcBfHPBggXR3pH4mYpoNhNmg3UTQBVEiHrRlhACKC+PXwBghukcfqPlS3/E1376KUTxPTBuMJ3HgNeg6C+pdcnTpoOEXdLuw7RoG2IqjQhlkdYxdGXrsTvbBJct0/F84UkBsL/W1tYMgBdHfwkhiuBvvvq5HwH4Y9M5TKBHl+4GsIA/cut7Af2fAC4ynckHPQD9I7qO+R8Z7p+YmBrBvKo1OL9qLc5IvIYau+ewX5dlG2+mTsG6gblY1Tsf7ZnS3ZzS8wJACCH8QMsX/46BS3DDp24A07+hNHcQHAJoMfTIv8okv4lpiHTGr679Oa6u/QUS1tgn7kbIwanlG3Bq+Qbc2Hg/1g3MxUOdH8eG1Cwf0vqLTAcQQozfk8+uDdIIwEPvu+jCPzEZgBcsiEJX/SlAXwJwhsksHukF8fcQsb5NP1q813SYsOpdM/WWtBv/blylY4Vey4X6SZScvxjvfvtBJiMAQojQo9yjx3sYuBfXffpyKP4yQFcifDc5W8F8N8rSd9EPf1jYkbCT2J7V9ZURRO4D4/q4SntyTQv6o5qppXv11D+ubWkvicmXUgAIIUoGAYzcTngr+SO3ngLiPwPzxwAcbzrbUQwCWA5F96J1yTMk264XZOCZpgYX9BiAuV5fm0HTFLCyZ/XUj9e0tD/i9fX9JgWAEKIk0fLFmwF8HcDXecGnzofGxwBagGCsnugBsBKEX4Kij1DrnYOmA5WCrudqq1yXfgXGuUVsJkbAT3qenbqg5qL2FUVsp+ikABBClDxqXfY8gOcBfJWv+/QcKLoErC8B0SUApvoQIQ3wq2B6EpZ6DOhZS62tsoGah5hBvWviDwJczM5/H4sIDww803R+5cUdod1+WQoAIcSkQiuWbgKwCcBdAMDX3TIbCmeD+GQwTgFw8uiviglcPg2gDYwdIFoP4nVw9To02K/T4sVZz/4S4hC9a6Z+icAf9LHJhKvUQ7zxtPPotI0ZH9v1jBQAQohJjVYseQPAGwf/Pl/3Z3WwIzVwVQ2UWwOtakBIglgD6PvDF6oegDuh3HZqvVfOLDCg6+lpMwj8T/63zGf09fR8BcDt/rddOCkAhBDiMEbX3cva+xCwbP4GeEIjNh7gr/U+O/Pu6ou2H35noQAr6CwAIYQQwqTB56Y0gvEJgxGqQM5nDLY/YVIACCGECK2sa90IoOCNfgpC/OdG258gKQCEEEKElmJcZzoDGCd1rW46zXSM8ZICQAghRCh1PN6YYOB80zkAwIaabzrDeEkBIIQQIpTiCTUHCMZR8ww+y3SG8ZICQAghRCgR0YmmM7yLcJLpCOMlBYAQQohQYuga0xnexRycLHmSAkCIcNKmA+xDDNnSVhjBmgIx/J9DcdMJxksKACFCiMGBOTyGgQHTGcTkRArDpjPsJ3TvAykAhAghAnWazrAPg2X7W2EEM+02nWE/gXlP5ksKACFCiJm2mM7wLhWgLGJSsYDAvPYoQFnyJQWAEGFE9LzpCPtYin9nOoOYnCqb295EQM5rYNBzpjOMlxQAQoTQ5Re99w0A203nAGHb/Hnz3jIdQ0xORNAAVpnOAcC1yP2N6RDjJQWAECHFRD82nQHMD5mOICY5CsRr8KnK5t0yB0AI4ROmpYDRJXiuq9U9BtsXAsm+ip8TuM1oCOYlRtufICkAhAipyy967xvEeNhcAvrJBy654E1z7QsB0NVvjWjQfxkLwNiUbOlYbqz9AkgBIESIucr9GwBDBppOKYe/bqBdIQ5RXVP7P2BsMtE2EX91dC5C6EgBIESIvb+lZTsx/t7vdhn0tfnzL9zmd7tCHA6dtjGjiW4F4PjaLui+ZEvHY3626SUpAIQIufkXXfAtACv8ao8Jy9/X8t7v+NWeEPmobWlbDfg5KkXrU0PuF/xrz3tSAAgRckTEZRbfSMDqorcFrC5XfBMRcbHbEmK8qls6/pPB3/WhqXccpa5qumK3icdvnpECQIgSMG/evFR2uPxKAMUcjnwySu7V8+bNSxWxDSEKUt3c8UUQ/3uxrs/A665LF9XP27mrWG34RQoAIUrEFVecNaSc9LUA/hHenhbIDHwnWRa5qqWlJXQHnojJhQhc3dzxdyDcAFCfx5dfgWysue6Sth0eX9cIMh1ACOG9p55Z26yJvkfgswu81DpW+guXNzev9SSYED7qWTN1FgHfAuPDBV5qB4i/Ut3cYXDZrfekABCiRC1kVhetXvshgL4I4GLk/37XAJ5l5m+976ILfybP+0XY9a1peg+z+iuArwUQz/9P8msA3ZnsT9xHV781UrSAhkgBIMQk8OSaNbNIW1eA+WImzAFjFgiVo/+5H8A7IGyCxjNauY+/v6XF/DkDQnis5zfHVlMkcwXAlzJwBgEnAqgEEAPQT0AbA5sZWKPBT9S1dGw0HLmo/j/E15NWBwEG6QAAAABJRU5ErkJggg==;" vertex="1" parent="1">
          <mxGeometry x="722" y="542" width="58" height="58" as="geometry" />
        </mxCell>
        <mxCell id="1MEsbrS8sAqf6LdHMhi8-33" value="&lt;font style=&quot;font-size: 15px;&quot;&gt;Machine Learning&lt;/font&gt;" style="text;html=1;align=center;verticalAlign=middle;whiteSpace=wrap;rounded=0;" vertex="1" parent="1">
          <mxGeometry x="691.63" y="620" width="122.25" height="30" as="geometry" />
        </mxCell>
        <mxCell id="1MEsbrS8sAqf6LdHMhi8-34" value="" style="shape=image;verticalLabelPosition=bottom;labelBackgroundColor=default;verticalAlign=top;aspect=fixed;imageAspect=0;image=data:image/png,iVBORw0KGgoAAAANSUhEUgAAADAAAAAwCAYAAABXAvmHAAAACXBIWXMAAAsTAAALEwEAmpwYAAAIR0lEQVR4nO1Ze4xUVxm/rdi09VFbtOzc75vZbB8byyqIWChQFAwpuLSJ1VqrtQVRq1Ex1Tb2LaZRqLykD1NbAxrTELqiUJg5Z/YBQ6EsUGfOuQuz95y551yW5S20vCmvwJjvziwZMf1zZ+cPfskkc889Z+Z7/r5zvuM4l3EZtQHPDxulto9KZVcKbfYXi8UrnFpHVvd8Vmo7T2pr6CO0fS1XsA8IbU9sDoJPOrWKbdt3DRfKbhcqPOip4BURBEMr3wttCp5vP+fUIqQ290tt9pGQQttjFC5S2/ekMh1S2/miYB6WyqwhTzi1iI1z5p6KQqdQAFJEKjMx6++ICW2/JpR5Wii7WShzQepwqVOLSA8bfqp15MhsEmC0p+1XpTZ7SSF6J1T43cgb2v6acqImE7lt2LDJHPFkCrGHIx5sHzVarn/s8SPvzFuQ37JilZXrO8fRPKlMFyno1CIY4r0MYG86kRjLXPeejubm5W2j78gyAMUAznKAD1qHDe9aO/372zniD1Ox2Lh21x3s1BKY605jiEHrkCEfo+fViMAB1nFEmQZoZwBvtjY1/ZYDLOaImzjAYQ5wiAPsYK47O404pQXxmoFVAmAJA3gljTiKA+zjiM9mHGdQKh7/EkcUffNSrtvIEP/JAI5wgNPcdV9giBkOcJTG0wDfbHGcj1RdgfabbrqOLMvi8RMMcXbL0KFX0Ximvv5qEm5VLHYtA5hLlmeIsxjiTIa4um99GvGGFMDDHHEzQ+xlAAvYLbdUtwCmAZZygHfJ4hzxGENMcoAfU6IzRMUB3uCJRIzmMsROjvidvrU8Hm9iAE9S6KUATnHEInPd3dx176+eAohTOOIa+p5MJK5niA9yAJ+EIcFYIhFV6TTAcAawJ1NfX8cAHuUA3RxxFwP4C4UQB3iaI7akASYyAEOhtSoW+3S/K9AWj7sMYH9ZmRs4YgcD2MYRNzCAX3LEHRxgRarkIcEQ36PcIWZyyuhoaBjCEQ+kY7GonlByM8QXGUAPAxjWrwrMcpwrGeK5NoBbyfLlP36LwihSynXv5gAnOeIFsmzrkCE3Vq4vOs4VHDFFOXLpbxMFEzn0uxIM4AxZkAM8lHbdeNnKzVEIAeQZwI40wI84wDJ6TtbV3XZRSICnOMCGD2MhygeqOcm6uvr+YyLE8xxgK4VFxPukEEBIf55EnMUBWi8qizgjsqrrjuAA32CIOxkA0jvyDgeYwF33JwxxEa0rs9NZjvh6vyjA4vG7GEBnCvHn5UJ1Ju26zxCVkpAM8T+XWo+YiJe89D5HXMgAVtK8ci1ZwxD/zOPxX3GAqRSaVFv6RfhIAYC/RlyPuIlRnLvuZmKWlYMHf4IhagZwH82jGpFsaJjEE4n50dwSbXaTpRniA+2xWKLfhPxQ4ePxmxniibI1SaCFEYMA7ClX2jcYwCPEQlSF28eMfb+juXkZhRp5yBlIEHtEdAmwO2IdxA6yMqur+wxH9HhDw9l0Y+Pp1i+MSFLI0GZOKvOMUOYFpxbAEZ9jiBtTrruQA/w7CfBQuQofJlrcuOilfaKr+2WpTa9QZoNQwX25ILxHKsMGWnaHA3yLikwrbRPi8V3pxsajbXeOP7h26tQnaHeaz+evEtqeyfT0XJ3JZAaVjqF2k1Bmt9R278AK77qTGADF/J4UwOm2UaPe3vLm8pxU5nmpzYs0h05oQtmwch0pIbQ5RIoNmPBJxC/zeJw2bBeIYWh/Q60Uqe0TW3x/sFB2V5dvvhgd7LVtoTW5QuE2ocwaoW1eKjOBzsstxWL1t87p22+fyevrz7fdOf74O/MXtNNYJLQ2h7bke+ro2fPDu6WyVmrzD6Htb6KekTJHhLbPUVjRGVkocz6b3XNtVYVfN33GnPYJE89s+N3vlwltXxc6+AGNR0Iq+/fKuV0FO11qe04qe1Zos4S6F5XvKYSy2exHqyb8xjnz/rjp1dcO5XwzpiSAWSyVnZ5TypXKHvS0bujzhlT22XKr5aBQpktos5XGcsqO3Lq19/psGF4nlfmgasIL304TKthf2WUjgYSyC4Wyy4Qyf+gqhOMpD0oJapYIZZJS29k0N+sHd1BilxjInibrC20OV0f4bnsrWfj/2oZBMFQqc1Ioe5SSVmizTfjmKc/aG4k2pbIHaG3ffAoXqewjQtndnrZtwg86qqKAp8y/hB+socoptJkrtVkutQmktsekNufImtIP7vof5Xw7TWq7jr4Xi8UrpQofJDqVyqTIi0KZx6W2L1VFAaHMIanMn0oKhE9GxajbNMlCuEEo81iZ9/dKbb5O7FK2tM0qM5lyhHqnpAxRZ99vkhGEby+eifsVUpuT+Xz+45VjEato+1ZfyzBqLSrjSWXelcr8TWobSm12RLzvB1+pXEtrpLZ7+ii33yG0XVvZYS5Z3XbLnp5PVQq1NeydJJSVUtsiMYz0bUtOmymXcr1QZiwVM6dayPlmDCWpFwQjaCNGSZjr3l5PFxeyYO8tVWDTKwvhNqHogiNcRLc0FOdCmfVSmVNSWT8KG21flgXTQQXNqSY8ZSZ72h6IChOFhjY9QtvjUtm3iXm6VPj5Ui7YTtq0Va4lD9AcotccUawyx7P5sPqHli2mt0loK6QyKqfMTM/zol4ogeiRFKNqS6xDHvBUOENqs7TcZt8kdPBTT9lfCG1XOQMJQRcY2qwu3ciYV2XBLo4uMko3Mxsjz5S8tETq4HtUqWld586d11CoeYXCaKcWkM2HCanNz4QyvVFlVXYfsY5U4fOeNt+W2o7LBsHNtHUoFTY6hdkVTi0ik8kMigpUafs8j7YX5A2qB+W9/wn6UPIPtKyXcRmX4dQm/guvH+Rcw0PJ2AAAAABJRU5ErkJggg==;" vertex="1" parent="1">
          <mxGeometry x="180" y="162" width="60" height="60" as="geometry" />
        </mxCell>
        <mxCell id="1MEsbrS8sAqf6LdHMhi8-35" value="&lt;font style=&quot;font-size: 30px;&quot;&gt;&lt;b&gt;Data Warehouse Architecture&lt;/b&gt;&lt;/font&gt;" style="text;html=1;align=center;verticalAlign=middle;whiteSpace=wrap;rounded=0;" vertex="1" parent="1">
          <mxGeometry x="172" y="110" width="452.5" height="30" as="geometry" />
        </mxCell>
      </root>
    </mxGraphModel>
  </diagram>
</mxfile>
